<?xml version="1.0" encoding="utf-8"?>
<!-- Generator: Adobe Illustrator 24.2.0, SVG Export Plug-In . SVG Version: 6.00 Build 0)  -->
<svg version="1.1" id="Layer_1" xmlns="http://www.w3.org/2000/svg" xmlns:xlink="http://www.w3.org/1999/xlink" x="0px" y="0px"
	 viewBox="0 0 1024 1024" enable-background="new 0 0 1024 1024" xml:space="preserve">
<g>
	<path fill="#FFFFFE" d="M484.39,10.61C570.31,5.57,657.52,23.1,734.6,61.5c68.92,34.1,129.75,84.36,176.35,145.52
		c37.65,49.18,66.05,105.4,83.29,164.89c30.24,103.71,26.11,217.14-12.08,318.24c-27.42,73.08-72.14,139.58-129.43,192.58
		c-59.13,55.02-131.75,95.53-209.78,116.46c-108.69,29.47-227.3,20.73-330.42-24.57c-63.42-27.58-120.9-68.57-167.97-119.2
		c-53.1-57.09-92.89-126.57-114.67-201.47c-24.69-84.16-26.63-174.79-5.93-260c15.67-64.78,44.56-126.29,84.19-179.86
		c45.24-61.13,104.36-111.98,171.8-147.16C343.02,33.81,413.26,14.47,484.39,10.61z M477.62,24.77
		c-68.12,4.74-135.11,24.35-195.24,56.67c-57.89,31.09-109.39,73.94-150.61,125.1c-47.01,58.23-80.51,127.34-96.7,200.42
		c-9.36,41.95-13.06,85.14-11.11,128.08c3.51,83.19,29.08,165.31,73.28,235.88c41.4,66.69,99.12,123.13,166.58,163.25
		c50.38,30.03,106.24,50.83,164,61.04c58.5,10.32,118.9,9.97,177.24-1.33c78.62-15.07,153.18-50.31,215.06-101.04
		c63.24-51.56,113.31-119.14,144.15-194.69c40.53-98.48,47.29-210.31,19.33-313.03c-16.45-61.11-45.1-118.86-83.49-169.16
		c-45.23-59.28-104.03-108.19-170.77-141.5C651.96,35.56,563.96,18.3,477.62,24.77z"/>
</g>
<path fill="#FFFFFE" d="M504.85,72.82c6.39-4.73,15.34-6.84,22.84-3.63c4.46,2.45,9.43,5.93,10.31,11.33
	c-2.97,0.53-5.92,1.16-8.89,1.7c-1.27-6.18-8.95-8.86-14.36-6.38c-4.68,1.48-7.1,6.53-6.9,11.18c-0.16,5.16,0.53,11.78,5.8,14.29
	c3.61,1.51,8.51,1.82,11.43-1.24c2.03-1.5,2.95-3.9,3.93-6.14c2.69,1.16,5.43,2.19,8.19,3.18c-1.02,4.6-4.1,8.83-8.5,10.69
	c-6.55,2.68-14.43,2.88-20.62-0.85C496.21,100.41,494.92,81.6,504.85,72.82z"/>
<g>
	<path fill="#FFFFFE" d="M459.26,70.35c7.87-1.24,17.2-0.85,23.01,5.38c6.72,7.65,7.18,19.83,1.62,28.23
		c-7.46,7.21-19.26,8.93-28.68,4.84c-3.75-2.32-7.89-4.94-9.51-9.27c-2.04-6.91-2.11-14.64,1.58-21.04
		C450.01,74.35,454.26,71.09,459.26,70.35z M465.47,76.29c-3.29,1.21-7.24,1.71-9.29,4.91c-6.38,7.39-2.52,20.29,6.85,22.97
		c4.49,1.16,9.19-0.74,12.73-3.46c3.19-4.22,2.7-9.81,2.2-14.77C476.77,80.43,471.28,75.39,465.47,76.29z"/>
</g>
<path fill="#FFFFFE" d="M571.98,72.98c4.62,0.6,9.23,1.26,13.8,2.16c0.95,9.41,1.93,18.83,3.12,28.22
	c4.37-8.36,8.37-16.91,12.71-25.29c4.44,1.32,8.99,2.24,13.52,3.24c-2.71,12.98-5.6,25.92-8.35,38.89
	c-2.44-0.22-4.87-0.51-7.29-0.87c1.44-10.48,3.55-20.86,5.13-31.32c-5.1,9.29-9.45,19-14.36,28.39c-2.74,1.2-6.04-0.98-8.88-1.56
	c-0.5-10.63-1.23-21.24-1.89-31.85c-1.18,2.93-1.5,6.1-2.06,9.19c-1.4,7.22-3.01,14.41-4.24,21.67c-2.86-0.46-5.64-1.23-8.43-1.96
	C566.97,98.88,569.68,85.97,571.98,72.98z"/>
<path fill="#FFFFFE" d="M420.49,76.06c3.11-0.3,6.2-0.73,9.31-1.05c2.81,13.01,5.9,25.97,8.29,39.06c-3.1,0.62-6.18,1.31-9.26,2
	c-1.08-5.98-2.13-11.97-3.09-17.97c-5.96,1.45-11.9,2.98-17.92,4.13c1.17,5.68,2.6,11.32,4.25,16.89c-3.19,0.92-6.44,1.66-9.74,2.07
	c-2.45-13.01-5.59-25.88-8.25-38.84c3.14-0.59,6.28-1.26,9.36-2.13c1.23,5.31,2.06,10.7,3.32,16c5.52-1.6,11.12-2.9,16.7-4.26
	C422.73,86.61,421.29,81.39,420.49,76.06z"/>
<path fill="#FFFFFE" d="M657.95,76.14c-0.2-2.44,2.18-0.51,2.96,0.06c1.33,1.12,3.38,2.4,2.78,4.45c-1.14,1.58-2.84,2.59-4.39,3.7
	c-0.13,1.55,0.2,3.65-1.45,4.53c-2.35,0.14-4.16-2.01-4.93-4.04c0.54-2.64,3.17-3.62,5.21-4.89
	C658.81,78.79,657.19,77.41,657.95,76.14z"/>
<g>
	<path fill="#FFFFFE" d="M632.48,90.64c6.83-1.49,14.61-1.5,20.79,2.24c5.2,2.71,8.78,7.83,10.42,13.37
		c1.12,5.34-0.73,10.73-3.06,15.47c-3.74,7.34-12.68,11.35-20.69,9.99c-6.87-2.59-14.52-5.28-18.59-11.85
		C617.51,109.3,621.97,95.51,632.48,90.64z M638.43,97.43c-1.05,0.18-2,0.57-2.85,1.18c-5.02,4.28-7.71,11.41-5.96,17.88
		c2.89,5.73,9.93,9.58,16.26,7.47c6.5-2.68,9.42-10.36,9.04-16.98c-0.08-3.68-2.84-6.39-5.71-8.31
		C646.23,96.09,641.99,97.08,638.43,97.43z"/>
</g>
<path fill="#FFFFFE" d="M352.99,95.1c2.85-1.08,5.69-2.19,8.56-3.24c4.28,12.72,9.05,25.27,13.55,37.91
	c-2.81,1.04-5.63,2.08-8.37,3.3C362.16,120.41,357.65,107.72,352.99,95.1z"/>
<g>
	<path fill="#FFFFFE" d="M317.28,109.65c2.89-0.81,5.58-2.32,8.54-2.82c3.12,1.9,6.16,3.96,8.86,6.44
		c8.09,7.29,16.47,14.32,24.39,21.76c-2.9,1.55-5.99,2.75-9.03,4c-2.82-1.55-5.01-4.07-7.47-6.14c-5.29,2.47-10.33,5.51-15.91,7.32
		c0.04,3.16,0.07,6.32,0.09,9.48c-2.83,1.44-5.66,2.89-8.5,4.32C318.11,139.22,317.42,124.43,317.28,109.65z M325.63,117.21
		c0.46,5.28,0.49,10.59,1.11,15.86c3.64-1.48,7.13-3.29,10.51-5.29C333.73,123.88,329.79,120.39,325.63,117.21z"/>
</g>
<path fill="#FFFFFE" d="M464.5,115.14c3.2-0.12,6.42-0.14,9.63-0.07c-0.06,2.48-0.14,4.95-0.29,7.43c-3.07-0.14-6.14-0.14-9.21-0.15
	C464.68,119.95,464.64,117.54,464.5,115.14z"/>
<g>
	<path fill="#FFFFFE" d="M278.93,130.8c2.52-2.03,5.86-2.53,8.95-3.06c3.97,1.09,8.42,1.77,11.29,5.02
		c3.25,3.62,6.39,7.56,7.69,12.34c3.22,7.93-1.52,17.31-8.82,21.06c-5.23,2.94-10.2,6.36-15.64,8.94
		c-2.97-5.2-6.06-10.36-9.19-15.46c-1.65-0.24-3.02,2.01-4.48,2.75c-0.68-1.43-1.36-2.86-2.02-4.29c1.06-1.02,2.13-2.04,3.18-3.06
		c-2.83-4.57-5.79-9.06-8.39-13.76C267.38,137.92,273.52,134.91,278.93,130.8z M272.88,142.34c1.44,2.84,2.89,5.68,4.28,8.55
		c1.95-0.95,3.86-1.96,5.79-2.94c1.05-0.4,2.49-1.76,3.46-0.46c0.56,1.08,1.03,2.21,1.53,3.32c-2.3,1.81-5.08,2.78-7.52,4.35
		c1.71,3.31,3.62,6.52,5.48,9.75c3.73-2.29,7.79-4.08,11.34-6.66c2.75-2.33,2.08-6.16,1.86-9.33c-0.65-3.5-3.26-6.12-4.99-9.11
		c-0.92-1.74-2.7-2.74-4.39-3.59C283.3,134.5,278.22,139.71,272.88,142.34z"/>
</g>
<path fill="#FFFFFE" d="M688.95,130.79c4.78,3.11,10,5.47,14.72,8.68c-1.16,2.01-2.26,4.05-3.42,6.06
	c-4.69-2.54-9.45-4.97-14.33-7.09C686.71,135.81,687.8,133.28,688.95,130.79z"/>
<g>
	<path fill="#FFFFFE" d="M741.47,134.97c4.86,2.54,8.79,6.49,13.54,9.2c4.78,3.01,8.82,7.27,10.78,12.65
		c0.28,4.03,0.36,8.29-2,11.78c-2.79,6.69-8.46,12.56-15.84,13.74c-5.06,0.54-10.31-0.86-14.37-3.93
		c-5.11-3.57-10.32-7.03-15.2-10.92c3.56-4.89,7.33-9.65,10.51-14.81c-1.03-0.59-2.05-1.18-3.05-1.77c0.55-1.32,1.11-2.64,1.67-3.97
		c1.59,0.39,3.2,1.52,4.8,1.45C735.45,143.98,738.54,139.52,741.47,134.97z M739.38,154.02c2.48,1.82,4.97,3.62,7.44,5.48
		c-1.21,1.08-1.93,3.07-3.54,3.48c-2.52-1.28-4.66-3.15-6.88-4.84c-2.27,3.11-4.33,6.37-6.53,9.53c5.29,3.1,10.22,8.58,16.93,7.33
		c2.59-2.12,5.81-3.69,7.23-6.93c2.71-3.56,4.5-8.34,2.56-12.67c-3.09-4.14-7.51-7-11.73-9.87
		C743.12,148.42,741.26,151.23,739.38,154.02z"/>
</g>
<path fill="#FFFFFE" d="M338.25,149.77c2.79-1.07,5.59-2.12,8.45-2.98c0.69,2.4,1.4,4.79,2.14,7.17c-2.82,1.11-5.65,2.18-8.51,3.15
	C339.69,154.65,338.97,152.21,338.25,149.77z"/>
<g>
	<path fill="#FFFFFE" d="M484.15,150.25c45.63-3.17,91.88,2.31,135.41,16.44c77.61,24.87,146.08,76.9,191.08,144.82
		c41.51,61.93,62.87,136.97,60.6,211.45c-1.35,56.81-16.93,113.13-44.29,162.9c-24.5,44.65-58.45,84.08-98.99,114.9
		c-41.53,31.67-89.99,54.18-141.01,65.37c-70.22,15.48-145.04,9.66-211.79-17.22c-69.33-27.51-129.71-76.97-170.35-139.51
		c-23.16-35.35-39.94-74.86-49.37-116.05c-9.35-40.64-11.51-82.89-6.6-124.28c7.52-64.58,33.17-126.82,72.89-178.25
		c46.74-60.89,113.51-105.96,187.33-126.94C433.54,156.79,458.75,152.28,484.15,150.25z M388.52,184.51
		c-56.27,20.41-106.85,56.03-145.2,101.96c-24.47,28.72-44.43,61.32-58.49,96.35c-17.44,43.07-25.79,89.72-24.85,136.15
		c0.94,44.35,10.4,88.53,27.84,129.33c16.07,37.88,39.12,72.68,67.22,102.7c9.75,9.89,19.64,19.68,30.42,28.47
		c56.39,47.33,128.1,76.18,201.62,80.64c65.35,4.33,131.89-10.18,189.28-41.8c42.55-23.36,80.06-55.78,109.49-94.36
		c31.28-40.83,53.36-88.66,64.13-138.95c15.67-72.79,7.22-150.58-24.07-218.17c-31.33-68.49-85.67-126-151.91-161.74
		c-40.45-21.9-85.27-35.75-131.05-40.23C490.86,159.64,437.67,166.61,388.52,184.51z"/>
</g>
<path fill="#FFFFFE" d="M780.79,164.58c0.28-0.19,0.84-0.56,1.12-0.75c2.4,1.88,4.57,4.05,7.07,5.82
	c-8.37,10.22-16.87,20.33-25.25,30.54c-2.42-1.74-4.74-3.64-7.27-5.21C764.99,185.21,772.57,174.61,780.79,164.58z"/>
<path fill="#FFFFFE" d="M220.93,171.02c5.4-3.75,13.84-5.63,19.22-1.09c-1.93,2.44-4.09,4.68-6,7.12
	c-8.34-4.61-19.69,5.41-16.4,14.27c0.58,1.84,1.07,3.85,2.66,5.11c3.29,3.39,7.28,7.51,12.45,6.88c3.22-0.57,6.97-1.62,8.58-4.77
	c1.37-2.38,3.08-4.57,4.2-7.09c-0.56-1.84-2.01-3.23-3.02-4.8c-2.65,1.92-5.07,4.13-7.5,6.32c-1.38-1.74-2.81-3.43-4.3-5.07
	c4.81-4.45,9.94-8.54,14.86-12.87c3.21,4.5,7.45,8.34,10.28,13.03c-3.51,9.23-10.06,17.48-19.05,21.79
	c-3.41,1.18-7.28,2.45-10.82,1.09c-4.29-1.68-9.15-3.09-11.82-7.18c-2.72-4.1-5.93-8.6-5.42-13.79
	C209.01,181.99,214.85,175.53,220.93,171.02z"/>
<g>
	<path fill="#FFFFFE" d="M767.89,203.36c13.76-5.34,27.26-11.33,41.02-16.69c2.04,2.12,4.44,3.96,6.15,6.38
		c-4.56,14.07-9.85,27.9-14.46,41.96c-1.78-2.74-4.01-5.14-6.46-7.29c0.84-3.21,2.75-6.28,2.88-9.59c-3.4-3.37-7.28-6.19-10.8-9.42
		c-0.97-0.68-1.8-1.82-3.06-1.89c-2.68,0.84-5.25,1.99-7.86,3C772.82,207.67,770.24,205.64,767.89,203.36z M790.94,203.59
		c3.08,2.56,6.53,4.83,8.71,8.27c1.8-5.35,4.16-10.49,6.13-15.77C801,198.94,796.07,201.45,790.94,203.59z"/>
</g>
<path fill="#FFFFFE" d="M185.74,204.67c1.9-2.28,4.07-4.31,6.18-6.39c9.79,9.07,19.53,18.19,29.35,27.21
	c-2.01,2.23-3.94,4.62-6.41,6.36c-10.41-1.25-20.78-2.91-31.2-4.04c6.15,5.94,12.37,11.81,18.61,17.66
	c-1.95,2.23-3.93,4.46-6.26,6.3c-9.49-8.92-18.67-18.18-28.18-27.07c1.59-2.35,3.45-4.49,5.38-6.56
	c10.64,1.76,21.41,2.65,32.06,4.39C199.18,216.17,192.22,210.65,185.74,204.67z"/>
<path fill="#FFFFFE" d="M748.91,205.65c1.39-2.15,2.81-4.29,4.26-6.41c2.26,1.79,4.47,3.67,6.36,5.86c-1.42,1.91-2.87,3.8-4.21,5.76
	C753.18,209.12,751.05,207.37,748.91,205.65z"/>
<g>
	<path fill="#FFFFFE" d="M155.05,232.93c1.92,1.67,3.88,3.32,6.15,4.51c0.06,1.68,0.07,3.36,0.13,5.04
		c3.23,0.53,6.73,0.65,9.43,2.74c3.57,2.66,7.53,5.16,9.74,9.16c7.21,13.79-4.8,33.16-20.44,32.52c-5.82,0.35-10.45-3.94-14.91-7.06
		c-7.61-6.05-7.39-18-1.71-25.28c3.13-5.41,8.24-9.83,14.54-10.9c0.12-1.26,0.24-2.52,0.36-3.77c-1.85-1.23-3.66-2.5-5.46-3.79
		C153.6,235.04,154.33,233.99,155.05,232.93z M152.85,253.84c-3.5,3-6.71,7.45-5.34,12.32c0.05,4.33,3.88,6.91,6.92,9.32
		c4.52,3.95,12.38,3.82,16.28-0.96c2.47-2.95,4.25-6.72,4.31-10.62c-1.67-7.05-8.54-11.09-15.11-12.75
		C157.52,251.93,154.92,252.33,152.85,253.84z"/>
</g>
<path fill="#FFFFFE" d="M821.65,252.05c2.37-11.11,13.52-20.52,25.19-18.84c7.16,1.54,11.84,7.61,15.74,13.33
	c3.15,5.19,2.76,11.94-0.79,16.83c-2.63-1.75-4.93-3.91-7.23-6.04c4.93-6.15-1.48-17.25-9.4-15.79c-5.55,0.88-10.3,4.61-13.93,8.72
	c-3.88,5.9-0.28,14.23,6.19,16.38c2.48,0.27,4.92-0.58,7.41-0.54c1.57,2.55,2.72,5.33,4.15,7.97c-4.22,1.07-8.92,1.86-12.98-0.14
	C827.51,270.35,821.79,261.16,821.65,252.05z"/>
<path fill="#FFFFFE" d="M138.35,239.21c3.08,0.56,6.19,0.82,9.31,0.97c-1.33,1.48-2.6,3.06-4.2,4.27c-3.78,0.97-7.68,1.41-11.5,2.24
	C134.02,244.13,136.14,241.63,138.35,239.21z"/>
<path fill="#FFFFFE" d="M843.85,288.95c11.34-7.34,23.08-14.25,34.73-21.15c1.23,2.47,2.6,4.87,4.07,7.22
	c-4.57,2.81-9.05,5.78-13.77,8.33c3.05,5.38,6.43,10.56,9.45,15.96c4.69-2.64,9.2-5.6,13.76-8.46c1.37,2.46,2.77,4.89,4.2,7.32
	c-11.07,7.18-22.43,13.9-33.47,21.1c-2-2.31-3.69-4.86-5.47-7.34c4.99-3.03,9.78-6.38,14.84-9.3c-2.77-5.01-5.7-9.92-8.46-14.93
	c-4.94,2.81-9.9,5.56-14.77,8.48C847.3,293.74,845.47,291.42,843.85,288.95z"/>
<path fill="#FFFFFE" d="M123.51,277.14c0.71-1.07,1.43-2.13,2.14-3.2c2.06,1.4,4.4,2.51,6.02,4.47c0.48,1.72,0.22,3.56,0.34,5.35
	c3.91,2.09,7.44,4.82,11.36,6.89c3.74,1.76,7.31,3.95,10.33,6.78c2.22,3.67,3.12,8.41,1.49,12.49c-1.39,5.39-4.84,9.91-8.7,13.79
	c-3.83,4.01-10.12,3.81-14.93,1.92c-2.89-0.88-4.89-3.26-7.51-4.63c-5.43-2.99-10.85-6.01-16.28-9.01c1.3-2.49,2.68-4.94,4.14-7.34
	c8.25,4.5,16.41,9.17,24.72,13.56c2.47,0.51,4.85-0.73,7.2-1.32c1.35-2.6,4.21-4.64,3.89-7.85c0.03-2.31,0.6-5.33-1.82-6.69
	c-8.29-4.74-16.59-9.53-24.53-14.84c1.47-2.31,2.82-4.67,4.19-7.04c1.18,0.76,2.43,1.42,3.72,1.98
	C129.04,279.35,125.57,278.74,123.51,277.14z"/>
<path fill="#FFFFFE" d="M909.92,318.04c3.2,0.72,6.39,1.54,9.58,2.39c1.03,2.11,2.1,4.21,3.16,6.31c-1.82,2.7-3.54,5.48-5.15,8.31
	c-0.79-1.67-1.64-3.31-2.15-5.07c0.48-1.92,1.4-3.7,1.93-5.61c-1.69-0.27-3.4-0.37-5.01-0.87
	C910.97,321.95,910.57,319.88,909.92,318.04z"/>
<g>
	<path fill="#FFFFFE" d="M424.04,329.75c32.33-7.04,65.46-9.78,98.51-9.39c-0.19,61.69,0.13,123.39-0.16,185.08
		c16.51,0.59,33.07,0.08,49.6,0.26c75.79-0.02,151.59,0.03,227.39-0.03c0.08,3.71,0.28,7.45-0.06,11.17
		c-2.09,5.15-1.16,10.81-2.32,16.16c-4.72,32.44-22.1,61.93-44.87,85.05c-18.53,19.09-40.62,34.46-64.04,46.94
		c-9.27,4.32-18.73,8.22-28.17,12.12c-39.12,16.52-81.43,24.25-123.61,27.33c-41.04,0.98-82.65-0.53-122.47-11.36
		c-22.69-5.56-44.99-12.94-66.05-23.1c-30.75-14.08-59.3-33.53-82.18-58.55c-12.71-14.39-23.68-30.53-30.91-48.38
		c-7.88-18.85-11.36-39.62-9.72-60.01c1.82-24.24,10.76-47.65,24.26-67.77c14.24-21.31,33.01-39.35,53.86-54.16
		C339.11,355.52,380.9,338.72,424.04,329.75z M393.15,385.69c26.65,5.73,53.65,9.88,80.8,12.45c11.94,1.1,23.93,2.07,35.93,2.12
		c-0.1-22.38,0-44.76-0.02-67.13C466.22,335.25,423.92,354.85,393.15,385.69z M404.04,347.39c-20.91,5.84-41.03,14.16-60.73,23.19
		c0,0.19,0.01,0.57,0.01,0.75c10.8,4.68,22.23,7.84,33.63,10.72c2.14,1.08,3.66-0.76,4.94-2.19c9.57-10.22,20.07-19.61,31.65-27.49
		c7.24-4.32,14.71-8.24,22.29-11.94C425.03,341.77,414.43,344.19,404.04,347.39z M326.64,380.59
		c-24.98,15.11-48.02,34.26-64.75,58.39c-13.68,19.49-22.64,42.63-23.69,66.55c30.18,0.39,60.37,0.06,90.55,0.16
		c0.7-4.87,0.36-9.82,1.12-14.69c1.83-17.07,6.07-33.84,12.19-49.86c3.05-7.38,6-14.86,10.28-21.63
		c5.52-8.9,10.84-17.99,17.46-26.13c-13.09-5.51-27.33-7.9-40.33-13.7C328.42,379.1,327.52,380.19,326.64,380.59z M346.98,465.99
		c-3.36,12.97-4.48,26.35-5.63,39.66c56.17,0.11,112.33,0.01,168.49,0.05c0.02-30.86-0.01-61.72,0.01-92.58
		c-17.66-1.52-35.39-2.46-53.01-4.61c-24.67-2.45-49.06-6.99-73.25-12.35C366.67,416.5,353.74,440.36,346.98,465.99z M238.3,518.35
		c0.53,19.72,6.76,39,16.25,56.19c15.77,28.19,40.39,50.42,67.47,67.52c1.17,0.6,2.58,2.05,3.85,0.79
		c11.89-8.13,25.33-13.55,38.57-19.04c-2.18-3.51-4.88-6.65-7.03-10.18c-9.06-12.76-14.86-27.45-19.73-42.22
		c-5.35-17.2-8.22-35.11-8.89-53.09C298.63,518.32,268.46,518.3,238.3,518.35z M341.37,518.34c0.19,17.2,2.94,34.4,8.55,50.68
		c5.74,17.23,14.42,33.39,24.72,48.31c0.71,1.02,1.6,2.57,3.1,1.85c7.06-2.09,14.21-3.85,21.37-5.59
		c36.14-9.46,73.55-12.9,110.79-14.23c-0.15-27.01,0.03-54.03-0.09-81.04C453.66,518.33,397.51,518.29,341.37,518.34z M522.4,518.55
		c0.22,26.94,0.06,53.89,0.07,80.83c46.68,0.26,93.63,5.38,138.52,18.58c0.45,0.02,1.37,0.05,1.83,0.07
		c10.35-12.31,17.51-26.91,23.53-41.72c6.9-18.46,9.67-38.14,11.13-57.7c-9.81-0.65-19.68-0.13-29.51-0.29
		c-31.99,0.01-63.98,0.01-95.96,0C555.47,518.45,538.92,518.04,522.4,518.55z M709.95,518.36c-1.32,37.13-12.87,74.18-34.79,104.37
		c12.26,2.97,23.16,9.73,34.77,14.42c12.65-8.04,24.05-17.97,34.48-28.71c23.41-24.23,40.51-56.07,42.28-90.14
		C761.11,518.36,735.53,518.26,709.95,518.36z M416.96,621.97c-10.87,2.2-21.81,4.3-32.32,7.94c5.68,7.04,11.88,13.68,18.83,19.48
		c12.74,11.97,27.95,21.04,43.91,28.05c19.72,8.48,40.98,13.51,62.43,14.46c0.1-26.6-0.02-53.2,0.06-79.8
		C478.71,612.88,447.54,615.81,416.96,621.97z M522.43,612.18c0.14,26.55,0.11,53.11,0,79.66c7.56,0.96,15.18-0.28,22.67-1.31
		c33.09-4.87,65.01-18.97,89.97-41.39c7-6.35,14.25-12.7,19.83-20.37C611.79,617.16,567,611.9,522.43,612.18z M666.12,635.17
		c-6.08,7.84-13.14,14.86-20.59,21.39c-9.93,8.29-20.18,16.31-31.67,22.34c5.12-0.11,10.05-1.7,14.95-3.05
		c11.4-3.52,22.58-7.74,33.51-12.53c12.08-5.33,23.54-11.87,35.37-17.7c-9.46-4.55-18.9-9.39-29.07-12.22
		C667.35,632.89,666.82,634.48,666.12,635.17z M358.16,640.14c-7.08,3.18-14.4,5.97-20.97,10.17c0.03,0.27,0.09,0.8,0.11,1.06
		c4.48,1.81,8.64,4.26,12.73,6.81c25.02,11.17,51.11,20.01,78,25.41c1.1,0.36,2.8,0.12,2.94,1.73c1.37-1.43,3.34,0.22,4.98,0.38
		c-7.31-4.33-14.8-8.35-22.1-12.69c-12.23-8.04-23.51-17.53-33.45-28.27c0.02-0.72-0.33-1.09-1.06-1.11
		c-2.39-3.11-5.06-6.01-7.14-9.34C367.41,635.97,362.85,638.22,358.16,640.14z"/>
</g>
<g>
	<path fill="#FFFFFE" d="M864.91,324.47c14.42-0.24,28.85-1.25,43.28-0.89c2.55,1.69,3.14,5.57,4.86,8.17
		c-1.19,0.86-2.41,1.71-3.4,2.81c-8.71,9.62-17.09,19.56-26.12,28.88c-1.25-2.84-2.66-5.61-4.03-8.39c2.47-2.42,4.89-4.87,7.41-7.24
		c-2.42-5.28-5.08-10.45-7.24-15.85c-3.57,0.2-7.09,0.74-10.64,1.11C867.57,330.24,866.02,327.45,864.91,324.47z M886.77,331.97
		c2.04,3.38,3.08,7.35,5.68,10.37c2.25-4.72,6.97-7.44,10.02-11.56C897.29,331.8,892.04,332.15,886.77,331.97z"/>
</g>
<path fill="#FFFFFE" d="M924.83,323.64c3.15,0.26,6.3,0.53,9.45,0.89c0.96,2.85,2.05,5.65,3.05,8.48
	c-3.58-1.65-7.46-2.67-10.83-4.74C926.01,326.7,925.4,325.17,924.83,323.64z"/>
<g>
	<path fill="#FFFFFE" d="M102.94,330.8c5.51-3.44,13.41-0.21,15.45,5.82c1.44,3.08-0.29,6.25-1.12,9.22
		c3.88-2.55,8.02-5.1,12.75-5.55c3.48-0.34,6.84-1.39,10.29-1.93c-1.33,2.73-2.49,5.53-3.75,8.3c-0.43,1.38-2.04,1.45-3.17,1.91
		c-5.11,1.47-10.19,3.06-15.31,4.49c-3.25,0.78-3.93,4.57-5.48,7.05c4.94,2.43,10.08,4.42,15.13,6.62
		c-1.13,2.74-2.18,5.53-3.11,8.36c-12.19-5-24.24-10.36-36.76-14.52c1.94-6.06,4.7-11.83,7.07-17.73
		C96.94,338.46,98.73,333.57,102.94,330.8z M102.31,342.04c-1.27,4.19-3.11,8.16-5.22,12c3.23,1.36,6.45,2.78,9.66,4.2
		c0.94-4.35,3.05-8.26,4.79-12.31c1.16-2.07-0.19-4.29-1.42-5.95C107.86,337.33,103.28,338.98,102.31,342.04z"/>
</g>
<path fill="#FFFFFE" d="M917.38,359.54c2.03-1.17,4.09-2.28,6.14-3.44c4.08,11.53,7.99,23.15,11.59,34.84
	c-2.39,0.67-4.77,1.36-7.12,2.12c-1.51-4.22-2.85-8.48-4.27-12.72c-10.52,3.56-21.09,6.99-31.6,10.59
	c-0.75-2.82-1.42-5.66-2.15-8.48c10.57-3.39,21.11-6.89,31.59-10.54C920.23,367.77,918.87,363.63,917.38,359.54z"/>
<path fill="#FFFFFE" d="M83.4,370.95c2.45,0.25,4.88,0.62,7.31,0.99c-1.16,4.68-2.89,9.19-4.06,13.87
	c10.53,2.89,20.95,6.2,31.42,9.31c-0.63,2.78-0.95,5.71-2.22,8.3c-10.85-3.06-21.67-6.25-32.48-9.45c-0.88,4.26-2.1,8.43-3.02,12.68
	c-2.14-0.63-4.27-1.32-6.39-2C77.11,393.42,80.34,382.2,83.4,370.95z"/>
<path fill="#FFFFFE" d="M714.81,402.97c6.36-7.67,17.99-9.88,26.93-5.73c8.52,3.81,13.86,13.13,14.08,22.29
	c-3.79,0.6-7.39,1.94-11.06,2.98c-1.47-5.08-4.52-9.84-8.88-12.88c-4.05-1.5-9.03-1.08-12.23,2.03c-6.43,5.4-7.21,14.57-7.35,22.4
	c-0.05,9.78-0.26,21.05,7.22,28.48c4.27,4.71,12.05,3.62,15.87-1.09c2.89-3.91,4.36-8.7,5.24-13.44c3.87,1.18,7.38,3.25,11.15,4.7
	c-0.2,5.2-2.29,10.12-4.25,14.87c-3.61,8.16-13.05,12.24-21.6,11.7c-8.39-0.52-15.73-6.19-19.89-13.26
	c-6.88-13.42-7.9-29.32-4.61-43.89C706.9,415.09,710.32,408.55,714.81,402.97z"/>
<path fill="#FFFFFE" d="M574.26,397.24c6.16,0.21,12.34-0.23,18.49,0.21c1.14,2.33,1.23,5.01,1.78,7.52
	c2.8,14.37,5.48,28.77,8.36,43.12c0.13,0.84,0.39,2.5,0.53,3.33c0.46-1.78,0.91-3.57,1.27-5.36c3.1-16.21,6.64-32.35,9.12-48.65
	c6.32-0.25,12.65-0.11,18.98-0.14c0.62,22.58-0.14,45.17,0.27,67.76c-0.56,4.47,0.51,9.06-0.55,13.45c-3.65-0.23-7.3-0.2-10.95-0.23
	c-0.13-20.81-0.05-41.62-0.04-62.42c-1.45,3.15-1.45,6.69-2.13,10.05c-3.35,17.32-6.01,34.79-9.62,52.05
	c-3.89,0.92-8.12,0.01-12.13,0.5c-1.66-4.82-1.93-9.95-3.02-14.9c-2.69-15.73-5.82-31.39-8.32-47.15c-0.18,0-0.54,0-0.72,0
	c0.27,20.45,0.19,40.92,0.03,61.37c-3.37,1.35-7.7,0.2-11.43,0.51C574.21,451.26,574.04,424.24,574.26,397.24z"/>
<g>
	<path fill="#FFFFFE" d="M644.6,397.51c9.12-0.51,18.28-0.09,27.41-0.22c6.41-0.3,12.76,3.19,15.97,8.74
		c3.17,5.72,5.03,12.06,6.43,18.42c1.17,8.11,0.94,16.35,0.5,24.5c-0.13,6.65-3.01,12.88-6.47,18.42c-1.87,3.12-4.7,5.51-7.72,7.46
		c-4.02,2.82-9.21,2.11-13.76,3.37c-7.4,0.26-14.82,0-22.23,0.11c-0.28-11.96,0.23-23.94-0.27-35.9c-2.03,0.05-4.05,0.09-6.06,0.12
		c-0.01-3.43-0.01-6.85-0.08-10.28c2.12-0.1,4.25-0.21,6.38-0.36C644.57,420.43,644.76,408.97,644.6,397.51z M657.44,410.83
		c-0.22,7.09-0.25,14.19,0.02,21.28c4.13,0,8.26,0.02,12.39,0.02c0.01,3.48,0.03,6.96-0.1,10.45c-4.1-0.12-8.2-0.06-12.3-0.16
		c-0.3,7.38-0.11,14.77-0.12,22.16c5.68,0.17,11.37-0.02,16.93-1.28c2.18-1.02,4.21-2.7,5.13-4.99c2.54-5.4,3.29-11.43,3.17-17.34
		c-0.16-7.4,0.76-15.18-2.39-22.12c-1.26-3.72-3.95-7.47-8.11-7.98C667.19,410.68,662.31,410.89,657.44,410.83z"/>
</g>
<path fill="#FFFFFE" d="M78.07,466.87c1.67-7.01,2.79-14.13,4.4-21.14c2.23,6.71,4.6,13.39,6.95,20.06
	c0.18,1.32,1.77,0.78,2.65,0.87c5.69-0.48,11.41-0.51,17.1-1.01c-4.97,4.44-11.01,7.61-16.34,11.63c2.59,6.21,4.97,12.5,7.35,18.79
	c-5.19-3.96-10.06-8.35-15.35-12.16l-0.66-0.01c-5.17,3.94-10.19,8.1-15.28,12.16c1.51-6.67,3.37-13.26,5.16-19.86
	c-5.63-3.21-11.4-6.17-16.87-9.63C64.13,467.03,71.11,466.64,78.07,466.87z"/>
<path fill="#FFFFFE" d="M928.88,466.8c2.79-6.22,4.63-12.83,7.66-18.94c0.97,6.7,2.79,13.25,3.89,19.93
	c6.6-0.74,13.24-1.21,19.8-2.24c-5.18,4.28-11.01,7.71-16.47,11.62c1.9,6.74,4.09,13.38,6.31,20.02
	c-5.4-3.72-10.55-7.77-15.88-11.57c-4.95,4.37-10.09,8.55-14.9,13.09c1.9-7.15,3.71-14.31,5.51-21.47
	c-5.47-3.54-11.21-6.66-16.46-10.52C915.18,466.78,922.03,466.8,928.88,466.8z"/>
<path fill="#FFFFFE" d="M910.07,539.48c7.28,5.56,14.5,11.18,21.74,16.79c1.36,1.28,3.31,1.24,5.05,1.5
	c4.7,0.42,9.36,1.18,14.08,1.47c-0.12,2.91-0.59,5.79-1.03,8.67c-5.97-0.35-11.92-1.23-17.9-0.95c-8.85,3.78-17.36,8.35-26.15,12.3
	c0.25-3.13,0.37-6.27,1.03-9.34c0.03-1.51,1.6-1.84,2.68-2.39c5.12-2.25,10.14-4.72,15.26-6.99c-5.19-4.05-10.64-7.76-15.87-11.75
	C909.25,545.68,909.68,542.57,910.07,539.48z"/>
<path fill="#FFFFFE" d="M61.4,555.16c14.05-1.75,28.08-3.56,42.14-5.23c0.35,2.83,0.63,5.67,0.88,8.51
	c-5.57,0.43-11.07,1.46-16.65,1.8c0.45,5.7,1.3,11.36,2,17.03c5.7-0.55,11.35-1.66,17.09-1.9c0.12,2.81,0.42,5.62,0.68,8.44
	c-14.09,1.65-28.07,4.2-42.15,6.04c-0.2-3.17-0.45-6.33-0.89-9.46c5.9-0.74,11.97-1,17.76-2.23c-0.32-5.57-1.33-11.1-1.97-16.64
	c-6.05,0.5-12.03,1.64-18.1,1.92C62.07,560.66,61.79,557.9,61.4,555.16z"/>
<path fill="#FFFFFE" d="M904.02,588.01c2.72-4.69,8.25-6.35,13.34-6.62c-0.31,2.75-0.61,5.52-1.02,8.27
	c-8.18,1.26-11.64,13.02-5.75,18.73c3.35,4.49,9.25,5,14.39,5.42c5.16,0.38,9.42-3.72,11.91-7.83c1.08-4.14,0.67-8.76-1.45-12.51
	c-1.61-1-3.61-1.04-5.38-1.55c-0.73,3.49-1.42,6.99-2.12,10.49c-2.17-0.56-4.3-1.25-6.39-1.99c1.1-5.93,2.23-11.86,3.13-17.83
	c5.7,1.06,11.43,1.95,17.08,3.28c4.76,9.72,4.62,22.53-2.88,30.87c-7.14,6.61-18.08,6.54-26.71,3.25
	c-5.08-2.89-10.44-7.04-11.5-13.16C900.22,600.45,899.86,593.36,904.02,588.01z"/>
<g>
	<path fill="#FFFFFE" d="M65.55,594.12c15.38,2.24,30.72,4.87,46.22,6.19c0.38,2.83,0.8,5.66,1.24,8.49
		c-12.26,8.86-24.51,17.74-36.96,26.33c-0.66-2.77-1.32-5.54-2.12-8.27c2.83-2.17,5.72-4.26,8.54-6.44
		c-1.6-5.64-2.76-11.39-4.46-16.99c-3.37-0.35-6.78-0.27-10.11-0.88C66.61,599.92,66.38,596.9,65.55,594.12z M85.58,604.67
		c0.96,3.85,2.13,7.64,2.95,11.53c2.79-1.78,5.16-4.14,8.03-5.79c1.89-1.22,4.05-2.09,5.58-3.78
		C96.59,606.14,91.11,605.22,85.58,604.67z"/>
</g>
<g>
	<path fill="#FFFFFE" d="M904.61,623.75c7.38-1.43,15.28,0.91,21.39,5.2c3.26,2.21,5.05,5.87,6.67,9.34
		c2.02,5.39,0.3,11.22-1.99,16.23c-3.14,7.54-11.78,11.94-19.74,11.16c-4.69-0.6-9.56-1.48-13.43-4.39
		c-5.26-4.04-9.13-10.56-8.49-17.36c0.41-5.59,2.62-11.25,6.7-15.17C898.34,626.58,901.44,625,904.61,623.75z M904.42,632.56
		c-5.82,1.28-8.17,8.19-7.51,13.5c1.82,5.47,7,10.41,13.03,10.26c2.56,0.13,5.19,1.25,7.71,0.3c7.71-2.49,10.56-14.19,4.25-19.56
		C916.84,633.74,910.56,630.75,904.42,632.56z"/>
</g>
<path fill="#FFFFFE" d="M77.09,639.39c13.36-4.44,26.63-9.13,39.98-13.61c1.07,2.68,2.29,5.33,3.02,8.14
	c-6.63,8.9-14.85,16.6-21.61,25.43c9.07-2.76,18.1-5.61,27.16-8.38c0.94,2.47,1.99,4.9,3.13,7.29c-13.71,4.7-27.5,9.16-41.23,13.8
	c-0.87-2.84-1.93-5.61-3.09-8.32c6.84-8.32,13.84-16.52,20.7-24.82c-0.17-0.09-0.52-0.26-0.69-0.35c-8.37,3.24-16.8,6.39-25.35,9.13
	C78.54,644.9,77.88,642.13,77.09,639.39z"/>
<g>
	<path fill="#FFFFFE" d="M119.32,667.34c2.67-1.05,5.29,0.63,7.83,1.3c4.18,0.98,7.03,4.52,9.51,7.77
		c3.08,5.18,5.28,11.59,3.33,17.57c-2.14,8.49-10.63,13.43-18.55,15.53c-6.15,1.79-12.92,0.04-17.97-3.7
		c-6.93-6.44-10.31-17.88-5.24-26.41C102.7,672.09,111.29,668.89,119.32,667.34z M116.47,676.7c-4.56,1.84-9.19,4.43-11.77,8.79
		c-2.53,5.64-0.15,12.72,5.54,15.38c6.12,2.29,12.66-0.64,17.74-4.08c6.77-4.27,6.28-16.42-1.27-19.61
		C123.61,675.53,119.76,675.94,116.47,676.7z"/>
</g>
<path fill="#FFFFFE" d="M917.37,672.02c2.18,0.64,4.33,1.39,6.37,2.45c-4.25,9.21-7.68,18.76-11.65,28.09
	c-13.33-5.62-26.62-11.35-40.01-16.79c1.44-2.85,2.83-5.72,4.39-8.5c10.34,5.21,21.03,9.72,31.39,14.92
	C911.02,685.46,914.28,678.78,917.37,672.02z"/>
<g>
	<path fill="#FFFFFE" d="M872.4,695.56c5.56-0.97,11.79-0.75,16.75,2.32c5.52,2.79,11.09,6.99,12.57,13.35
		c2.86,7.57-1.27,15.57-6.4,21.06c-4.38,5.19-12.2,7.55-18.55,4.84c-7.48-1.95-14.83-6.74-17.66-14.21
		c-2.06-4.13-0.66-8.85,0.19-13.08C860.52,703.06,866.38,698.19,872.4,695.56z M874.51,703.73c-3.07,0.61-5.66,2.87-7.6,5.22
		c-2.87,7.16,1.48,15.95,8.65,18.53c4.82,2.43,10.97,2.98,15.39-0.55c3.02-3.35,5.41-8.55,3.05-12.9
		C890.26,707.18,882.4,702.49,874.51,703.73z"/>
</g>
<path fill="#FFFFFE" d="M109.8,721.4c12.67-6.34,25.14-13.08,37.59-19.82c1.63,2.33,3.22,4.71,4.43,7.3
	c-12.54,6.8-25.3,13.21-37.79,20.1C112.59,726.47,111.14,723.96,109.8,721.4z"/>
<path fill="#FFFFFE" d="M131.43,745.55c7.76-9.45,19.11-14.69,28.78-21.85c1.86,2.34,3.57,4.8,5.25,7.28
	c-6.77,4.42-13.64,8.69-20.47,13.01c-3.47,2.25-6.98,5.63-6.91,10.07c0.94,2.83,2.52,6.07,5.34,7.39c3.67,1.9,7.5-0.48,10.59-2.42
	c7.08-4.69,14.06-9.53,21.1-14.28c1.39,2.44,2.76,4.9,4.12,7.37c-8.74,5.54-17.1,11.7-26,17c-4.74,3.15-11.69,2.37-15.53-1.84
	c-3.45-3.81-6.3-8.31-7.74-13.26C129.77,751.16,129.18,747.78,131.43,745.55z"/>
<path fill="#FFFFFE" d="M832.03,752.06c6.14-8.64,11.91-17.53,17.9-26.26c2.07,1.35,4.23,2.59,6.17,4.15
	c-3.85,6.49-8.38,12.58-12.43,18.96c2.46,1.79,4.93,3.57,7.4,5.37c4.22-5.68,8.38-11.41,12.73-16.99c1.66,1.08,3.37,2.13,5.12,3.1
	c-3.76,6.07-7.71,12.02-11.63,17.97c3.18,2.05,6.25,4.3,9.49,6.27c4.72-6.12,9.17-12.46,13.61-18.79c1.9,1.26,3.67,2.7,5.42,4.18
	c-6.05,8.66-11.95,17.43-17.87,26.18C855.86,768.31,844.07,760,832.03,752.06z"/>
<path fill="#FFFFFE" d="M148.79,783.54c11.38-8.93,22.43-18.28,33.79-27.23c1.66,2.21,3.45,4.33,5.2,6.5
	c-4.14,10.34-7.85,20.86-11.6,31.35c7.35-5.93,14.7-11.87,22.01-17.85c1.66,2.05,3.4,4.04,5.21,5.97c-1.79,2.04-3.91,3.73-6.02,5.42
	c-8.93,7.35-17.7,14.91-26.62,22.28c-1.57-2.46-3.39-4.74-4.97-7.18c2.93-10.4,7.07-20.46,10.28-30.79
	c-7.33,5.67-14.78,11.19-22.03,16.96C152.28,787.17,150.51,785.38,148.79,783.54z"/>
<path fill="#FFFFFE" d="M823.02,764.81c4.32-4.39,11.34-3.87,16.41-1.15c-1.37,2.32-2.58,4.72-3.95,7.04
	c-4.25-0.91-9.34-0.05-11.95,3.76c-2.27,3.39-4.15,8.05-1.75,11.87c3.27,7.87,12.64,12.89,20.92,10.27
	c5.13-2.35,7.13-8.43,7.35-13.67c-1.14-1.43-2.76-2.36-4.14-3.5c-2.3,2.34-4.36,4.89-6.43,7.42c-1.79-1.44-3.55-2.87-5.28-4.35
	c4-4.81,7.81-9.78,11.65-14.71c4.42,4.18,9.32,7.83,13.77,11.99c-1.52,5.42-2.45,11.24-5.96,15.83c-2.82,3.44-5.72,7.26-10.08,8.8
	c-4.55,1.68-9.48,0.92-14.09-0.03c-3.88-0.83-6.56-3.96-9.6-6.24c-5.52-4.11-7.48-11.59-7-18.16
	C813.54,773.48,818.96,769.32,823.02,764.81z"/>
<path fill="#FFFFFE" d="M176.06,815.24c10.71-9.65,20.98-19.78,31.74-29.39c3.59,4.81,7.92,9.03,11.43,13.9
	c-4.71,10-9.16,20.12-13.59,30.25c9.78-5.34,19.7-10.45,29.44-15.88c9.12,10.09,21.17,16.8,31.53,25.48
	c-1.41,2.08-2.81,4.16-4.2,6.24c-5.9-5.07-11.95-9.98-18.01-14.87c-1.92,2.56-4.01,4.99-6.24,7.29c5.52,4.77,11.28,9.27,16.99,13.83
	c-1.43,1.69-2.83,3.41-4.19,5.17c-5.85-4.32-11.25-9.2-17.01-13.62c-2.42,3.18-4.82,6.39-7.4,9.45c6.28,5.02,12.73,9.83,19.01,14.84
	c-1.77,2.01-3.44,4.1-5.03,6.25c-8.63-6.85-16.97-14.08-25.51-21.05c8.42-10.09,16.46-20.49,24.85-30.61
	c0.23-0.45,0.69-1.35,0.92-1.79c-12.94,6.58-25.95,13.04-38.95,19.5c-3.03-1.12-5.18-4.21-7.91-6.05
	c6.38-13.41,12.09-27.12,18.49-40.51l-0.27-0.8c-10.47,9.33-20.3,19.43-31,28.49C179.5,819.27,177.81,817.23,176.06,815.24z"/>
<g>
	<path fill="#FFFFFE" d="M782.73,808.75c4.01-3.54,9.97-6.49,15.23-3.95c9.52,4.11,18.08,12.55,19.25,23.26
		c0.3,4.75-2.36,9.05-5.53,12.36c-4.83,3.74-8.94,8.31-13.12,12.73c-10.31-10.15-19.79-21.11-29.67-31.67
		C773.61,817.35,778.33,813.22,782.73,808.75z M780.44,820.36c6.26,7.2,12.12,14.83,19.21,21.26c2.93-2.72,6.59-4.88,8.36-8.62
		c2.46-3.58,0.24-8.03-2.04-11.08c-2.74-5.05-7.86-8.19-13.21-9.86C787.45,812.54,784.41,817.43,780.44,820.36z"/>
</g>
<path fill="#FFFFFE" d="M758.54,828.91c2.37-1.46,4.8-2.83,7.28-4.11c8.35,11.28,16.86,22.45,25.26,33.7
	c-2.16,1.64-4.25,3.35-6.27,5.15c-10.28-3.79-20.48-7.76-30.73-11.6c5.64,7.47,11.52,14.77,16.95,22.4
	c-2.2,1.48-4.25,3.16-6.19,4.96c-9-11.39-17.55-23.14-26.44-34.62c2.12-1.43,4.24-2.86,6.38-4.26c10.45,3.94,20.98,7.65,31.43,11.59
	C770.52,844.23,764.21,836.8,758.54,828.91z"/>
<g>
	<path fill="#FFFFFE" d="M267.73,845.74c0.72-0.98,1.22-2.19,2.23-2.89c5.15,3.29,10.24,6.68,15.52,9.75
		c4.32,2.52,9.05,5.99,9.5,11.41c-0.62,4.01-1.86,8.29-5.3,10.79c-3.98,2.67-9.3,2.73-13.5,0.49c0.85,1.78,2.1,3.53,2.01,5.6
		c0.08,6.05-0.15,12.11,0.14,18.16c-2.85-1.94-5.55-4.1-8.47-5.95c-0.06-6.33,0.34-12.7-0.18-19c-1.59-2.54-3.87-4.55-6.35-6.17
		c-2.92,4.99-6.22,9.75-9.28,14.66c-2.3-1.91-5.34-3.15-7.13-5.51C253.78,866.59,260.87,856.23,267.73,845.74z M273.07,853.14
		c-2.23,3.12-4.39,6.29-6.4,9.55c4.63,2.6,9.04,5.9,14.32,7.04c2.56-0.75,4.61-3.02,4.75-5.74
		C283.84,858.22,277.5,856.44,273.07,853.14z"/>
</g>
<g>
	<path fill="#FFFFFE" d="M716.37,859.91c1.87-2.25,4.87-4.22,7.54-5.44c12.05,9.15,24.47,17.83,36.36,27.18
		c-2.41,1.77-4.83,3.5-7.24,5.25c-2.76-2.27-5.58-4.46-8.55-6.43c-4.74,3.41-9.56,6.74-14.61,9.67c1.08,3.44,2.47,6.89,2.09,10.57
		c-2.49,1.26-4.9,2.63-7.33,3.98C722,889.74,719.07,874.84,716.37,859.91z M724.64,865.73c1.44,5.16,2.64,10.39,4.26,15.5
		c3.55,0.07,6.33-3.17,9.44-4.69C734.24,872.39,729.41,869.05,724.64,865.73z"/>
</g>
<path fill="#FFFFFE" d="M299.39,869.28c3.88-3.67,9.8-2.51,14.32-0.77c2.89,1.58,5.75,3.33,8.1,5.67c3.82,3.79,4.91,9.97,2.72,14.88
	c-2.77-1.52-5.59-2.93-8.37-4.42c1.49-2.21,0.58-4.92-0.93-6.82c-2.61-2-5.72-4.04-9.17-3.64c-1.24,0.88-1.85,2.35-2.31,3.76
	c1.61,4.14,5.22,7.14,8.63,9.82c4.37,2.76,5.7,8.34,6.33,13.14c-0.66,2.59-1.24,5.66-3.63,7.26c-3.29,2.2-6.88,4.78-11.09,3.77
	c-7.08-1.56-15.2-4.87-17.45-12.5c-1.9-3.64-0.76-7.7-0.01-11.46c2.86,0.89,5.65,1.97,8.43,3.09c-0.47,2.19-1.43,4.49-0.75,6.74
	c1.87,3.17,5.16,5.35,8.68,6.28c2.78,0.19,6.23-1.04,6.8-4.12c1.01-2.5-1.5-4.31-3.17-5.67c-4.16-3.07-7.89-6.85-10.24-11.49
	C294.56,878.27,295.12,872.22,299.39,869.28z"/>
<path fill="#FFFFFE" d="M674.1,880.19c4.99-1.59,10.88-2.91,15.74-0.21c2.05,1.09,3.7,2.77,5.41,4.34c-2.2,2.16-4.79,3.82-7.26,5.62
	c-2.77-4.17-8.71-3.68-12.65-1.63c-3.49,1.6-4.8,5.5-6.28,8.73c-0.24,5.69,2.67,11.25,6.65,15.23c1.96,1.89,4.31,3.93,7.23,3.78
	c5.75-0.25,10.75-4,13.29-9.06c-0.53-1.56-1.37-2.97-2.13-4.4c-3.12,1.43-6.28,2.79-9.33,4.36c-1.18-2.49-2.27-5.01-3.09-7.62
	c6.04-2.14,11.82-4.9,17.79-7.19c2.01,5.3,4.17,10.55,6.27,15.81c-2.18,4.47-5.71,8.11-9.79,10.9c-4.03,3.72-9.78,4.15-14.95,4.84
	c-5.72-1.03-11.81-3.4-14.82-8.72c-3.79-6.52-7.49-14.52-4.21-22.01C663.16,886.65,668.86,883,674.1,880.19z"/>
<path fill="#FFFFFE" d="M334,879.52c2.72,1.27,5.39,2.65,8.14,3.85c-5.12,13.32-11.81,25.99-17.4,39.11
	c-2.94-1.16-5.73-2.67-8.58-4.01C322.11,905.49,328.09,892.52,334,879.52z"/>
<path fill="#FFFFFE" d="M343.39,883.85c12.84,4.48,25.16,10.41,38.1,14.64c1.61,6.14,3.41,12.23,4.94,18.4
	c1.43,0.18,2.2-1.27,3.18-2.02c3.51-3.24,6.79-6.77,10.53-9.74c3.19,0.01,6.57,0.72,9.5,2.07c-7.36,6.44-14.74,12.94-21.77,19.7
	c-1.77,5.52-2.79,11.26-4.33,16.85c-2.83-0.76-5.65-1.49-8.49-2.15c1.83-5.82,3.56-11.68,5.17-17.55
	c-1.65-8.01-4.72-15.67-6.57-23.64c-0.63,1.05-1.24,2.14-1.84,3.23c-3.8-1.8-7.65-3.48-11.44-5.27c-4.2,11.23-8.45,22.45-12.6,33.7
	c-2.84-0.97-5.66-2.03-8.44-3.16c4.33-11.18,8.4-22.47,12.7-33.66c-3.85-1.37-7.7-2.71-11.5-4.17
	C341.54,888.69,342.54,886.3,343.39,883.85z"/>
<path fill="#FFFFFE" d="M643.82,894.11c2.38-1.02,4.76-2.04,7.15-3.04c4.58,13.68,9.04,27.4,13.75,41.04
	c-2.55,0.9-4.93,2.45-7.62,2.88c-8.75-6.88-17.46-13.83-26.04-20.92c2.72,9,6.56,17.62,9.25,26.63c-2.43,0.61-4.86,1.25-7.29,1.82
	c-4.52-13.27-8.93-26.59-13.68-39.77c2.48-1.09,4.89-2.45,7.54-3.08c8.85,7.06,17.18,14.79,26.14,21.71
	C650.06,912.26,646.45,903.34,643.82,894.11z"/>
<path fill="#FFFFFE" d="M606.83,905.84c2.78-0.8,5.59-1.52,8.44-2.01c3.38,13.61,6.84,27.19,10.47,40.73
	c-2.77,0.9-5.59,1.64-8.42,2.34C613.85,933.21,610.25,919.55,606.83,905.84z"/>
<path fill="#FFFFFE" d="M594.07,909.04c2.49-0.77,5-1.49,7.52-2.17c2.61,14.07,5.54,28.08,8.34,42.11
	c-2.84,0.68-5.66,1.41-8.51,2.08c-7.33-8.06-14.54-16.25-22.06-24.13c1.74,9.14,3.67,18.25,5.2,27.44
	c-2.44,0.29-4.89,0.58-7.32,0.89c-2.73-14.02-5.54-28.02-8.35-42.03c2.36-0.34,4.7-0.87,7.08-1.08
	c8.11,7.72,15.41,16.32,23.54,24.07C597.44,927.21,596.09,918.05,594.07,909.04z"/>
<g>
	<path fill="#FFFFFE" d="M431.39,912.51c9.99-2.3,22.52,1.56,26.75,11.63c3.4,8.91,1.22,19.83-5.58,26.58
		c-8.65,9.1-25.24,6.88-32.3-3.15c-3.15-6.7-2.66-14.47-1.29-21.55C420.44,919.61,425.68,915.19,431.39,912.51z M428.9,924.93
		c-2.36,5.46-3.67,11.87-1.52,17.62c1.16,3.76,5.31,5.29,8.71,6.39c4.23,1.13,7.46-2.09,10.77-4.05c3.13-6,4.73-13.42,2.08-19.86
		C445.03,917.67,432.95,917.76,428.9,924.93z"/>
</g>
<path fill="#FFFFFE" d="M555.12,915.25c2.85-0.25,5.7-0.63,8.53-1.09c1.88,14.12,4.27,28.17,6.22,42.29
	c-2.86,0.34-5.73,0.6-8.6,0.77C559.58,943.18,557.23,929.22,555.12,915.25z"/>
<path fill="#FFFFFE" d="M464.51,916.33c9.85,0.74,19.71,1.42,29.57,2.08c-0.07,2.49-0.12,4.99-0.19,7.5
	c-6.91-0.94-13.87-1.57-20.82-2.12c-0.28,3.53-1,7.04-0.99,10.6c5.94,0.06,11.86,0.72,17.81,0.75c0.04,2.49,0.07,4.98,0.11,7.48
	c-6-0.4-12-0.7-17.99-1.01c-0.15,5.96-1.04,11.88-1.02,17.85c-3.17-0.37-6.33-0.65-9.5-0.95
	C462.4,944.44,463.74,930.41,464.51,916.33z"/>
<path fill="#FFFFFE" d="M538.36,916.25c4.14,0.06,8.29,0.08,12.43,0.02c1.31,14.04,2.3,28.12,3.23,42.19
	c-2.78,0.36-5.56,0.65-8.33,1.01c-0.71-10.93-1.34-21.85-2-32.77c-2.72,10.78-4.24,21.89-6.36,32.82c-2.85,0.35-5.7,0.62-8.54,1.01
	c-2.96-10.19-6.44-20.23-9.29-30.45c-0.33-0.8-0.72-1.55-1.18-2.26c0.59,10.98,1.78,21.94,1.84,32.94
	c-2.39,0.17-4.76,0.43-7.11,0.74c-0.93-14.42-2.33-28.83-3.01-43.26c4.24-0.06,8.46-0.52,12.69-0.77
	c2.53,9.69,6.33,19.01,8.81,28.73c0.24-0.29,0.71-0.87,0.95-1.16C534.3,935.42,536.38,925.84,538.36,916.25z"/>
<g>
	<g>
		<path fill="#183883" d="M484.04,1.01c6.28-1.13,12.65-0.73,18.96-0.05c9.3-0.02,18.62,0.35,27.89-0.48
			c5.4-1.13,10.72,0.89,16.13,0.94c87.76,5.6,173.83,34.81,247,83.59c61.38,40.7,113.82,94.79,152.61,157.4
			c41.8,67.05,67.66,143.96,74.83,222.64c0.84,7.31,0.91,14.68,1.95,21.97c0.88,6-0.68,11.98-0.41,17.99
			c0.18,9.32-0.57,18.7,0.86,27.96c-1.41,13.3-1.95,26.71-3.7,39.98c-10.22,88.48-44.67,173.9-98.09,245.12
			C876.45,879.24,816.99,930,749.44,965.5c-61.01,32.12-128.65,51.61-197.41,56.72c-5.35,0.35-10.7,0.77-16.01,1.5
			c-4.04,0.75-7.98-0.89-12.02-0.72c-10.67,0.14-21.38-0.52-31.99,0.88c-13.29-1.45-26.68-2.15-39.96-3.79
			c-61.22-7.27-121.05-25.89-175.66-54.48c-61.89-32.4-117.17-77.45-161.24-131.66C62.33,769.4,25.52,691.77,9.62,609.87
			c-4.05-21.05-6.94-42.34-8.22-63.73c-0.26-4.43-1.29-8.8-1.01-13.25c1.03-11.26,0.57-22.6,0.5-33.89
			c-1.12-5.97-0.23-11.95,0.39-17.91c4.15-67.77,22.08-134.66,52.44-195.4c28.97-58.27,69.2-110.9,117.68-154.31
			c51.08-45.87,111.41-81.44,176.39-103.64C391.69,12.59,437.7,3.82,484.04,1.01z M484.39,10.61
			c-71.13,3.86-141.37,23.2-204.44,56.32c-67.44,35.18-126.56,86.03-171.8,147.16c-39.63,53.57-68.52,115.08-84.19,179.86
			c-20.7,85.21-18.76,175.84,5.93,260c21.78,74.9,61.57,144.38,114.67,201.47c47.07,50.63,104.55,91.62,167.97,119.2
			c103.12,45.3,221.73,54.04,330.42,24.57c78.03-20.93,150.65-61.44,209.78-116.46c57.29-53,102.01-119.5,129.43-192.58
			c38.19-101.1,42.32-214.53,12.08-318.24C977,312.42,948.6,256.2,910.95,207.02C864.35,145.86,803.52,95.6,734.6,61.5
			C657.52,23.1,570.31,5.57,484.39,10.61z"/>
	</g>
	<g>
		<path fill="#183883" d="M477.62,24.77c86.34-6.47,174.34,10.79,251.72,49.69c66.74,33.31,125.54,82.22,170.77,141.5
			c38.39,50.3,67.04,108.05,83.49,169.16c27.96,102.72,21.2,214.55-19.33,313.03c-30.84,75.55-80.91,143.13-144.15,194.69
			c-61.88,50.73-136.44,85.97-215.06,101.04c-58.34,11.3-118.74,11.65-177.24,1.33c-57.76-10.21-113.62-31.01-164-61.04
			c-67.46-40.12-125.18-96.56-166.58-163.25c-44.2-70.57-69.77-152.69-73.28-235.88c-1.95-42.94,1.75-86.13,11.11-128.08
			c16.19-73.08,49.69-142.19,96.7-200.42c41.22-51.16,92.72-94.01,150.61-125.1C342.51,49.12,409.5,29.51,477.62,24.77z
			 M504.85,72.82c-9.93,8.78-8.64,27.59,3.23,34.13c6.19,3.73,14.07,3.53,20.62,0.85c4.4-1.86,7.48-6.09,8.5-10.69
			c-2.76-0.99-5.5-2.02-8.19-3.18c-0.98,2.24-1.9,4.64-3.93,6.14c-2.92,3.06-7.82,2.75-11.43,1.24c-5.27-2.51-5.96-9.13-5.8-14.29
			c-0.2-4.65,2.22-9.7,6.9-11.18c5.41-2.48,13.09,0.2,14.36,6.38c2.97-0.54,5.92-1.17,8.89-1.7c-0.88-5.4-5.85-8.88-10.31-11.33
			C520.19,65.98,511.24,68.09,504.85,72.82z M459.26,70.35c-5,0.74-9.25,4-11.98,8.14c-3.69,6.4-3.62,14.13-1.58,21.04
			c1.62,4.33,5.76,6.95,9.51,9.27c9.42,4.09,21.22,2.37,28.68-4.84c5.56-8.4,5.1-20.58-1.62-28.23
			C476.46,69.5,467.13,69.11,459.26,70.35z M571.98,72.98c-2.3,12.99-5.01,25.9-7.22,38.91c2.79,0.73,5.57,1.5,8.43,1.96
			c1.23-7.26,2.84-14.45,4.24-21.67c0.56-3.09,0.88-6.26,2.06-9.19c0.66,10.61,1.39,21.22,1.89,31.85c2.84,0.58,6.14,2.76,8.88,1.56
			c4.91-9.39,9.26-19.1,14.36-28.39c-1.58,10.46-3.69,20.84-5.13,31.32c2.42,0.36,4.85,0.65,7.29,0.87
			c2.75-12.97,5.64-25.91,8.35-38.89c-4.53-1-9.08-1.92-13.52-3.24c-4.34,8.38-8.34,16.93-12.71,25.29
			c-1.19-9.39-2.17-18.81-3.12-28.22C581.21,74.24,576.6,73.58,571.98,72.98z M420.49,76.06c0.8,5.33,2.24,10.55,2.97,15.9
			c-5.58,1.36-11.18,2.66-16.7,4.26c-1.26-5.3-2.09-10.69-3.32-16c-3.08,0.87-6.22,1.54-9.36,2.13c2.66,12.96,5.8,25.83,8.25,38.84
			c3.3-0.41,6.55-1.15,9.74-2.07c-1.65-5.57-3.08-11.21-4.25-16.89c6.02-1.15,11.96-2.68,17.92-4.13c0.96,6,2.01,11.99,3.09,17.97
			c3.08-0.69,6.16-1.38,9.26-2c-2.39-13.09-5.48-26.05-8.29-39.06C426.69,75.33,423.6,75.76,420.49,76.06z M657.95,76.14
			c-0.76,1.27,0.86,2.65,0.18,3.81c-2.04,1.27-4.67,2.25-5.21,4.89c0.77,2.03,2.58,4.18,4.93,4.04c1.65-0.88,1.32-2.98,1.45-4.53
			c1.55-1.11,3.25-2.12,4.39-3.7c0.6-2.05-1.45-3.33-2.78-4.45C660.13,75.63,657.75,73.7,657.95,76.14z M632.48,90.64
			c-10.51,4.87-14.97,18.66-11.13,29.22c4.07,6.57,11.72,9.26,18.59,11.85c8.01,1.36,16.95-2.65,20.69-9.99
			c2.33-4.74,4.18-10.13,3.06-15.47c-1.64-5.54-5.22-10.66-10.42-13.37C647.09,89.14,639.31,89.15,632.48,90.64z M352.99,95.1
			c4.66,12.62,9.17,25.31,13.74,37.97c2.74-1.22,5.56-2.26,8.37-3.3c-4.5-12.64-9.27-25.19-13.55-37.91
			C358.68,92.91,355.84,94.02,352.99,95.1z M317.28,109.65c0.14,14.78,0.83,29.57,0.97,44.36c2.84-1.43,5.67-2.88,8.5-4.32
			c-0.02-3.16-0.05-6.32-0.09-9.48c5.58-1.81,10.62-4.85,15.91-7.32c2.46,2.07,4.65,4.59,7.47,6.14c3.04-1.25,6.13-2.45,9.03-4
			c-7.92-7.44-16.3-14.47-24.39-21.76c-2.7-2.48-5.74-4.54-8.86-6.44C322.86,107.33,320.17,108.84,317.28,109.65z M464.5,115.14
			c0.14,2.4,0.18,4.81,0.13,7.21c3.07,0.01,6.14,0.01,9.21,0.15c0.15-2.48,0.23-4.95,0.29-7.43
			C470.92,115,467.7,115.02,464.5,115.14z M278.93,130.8c-5.41,4.11-11.55,7.12-17.43,10.48c2.6,4.7,5.56,9.19,8.39,13.76
			c-1.05,1.02-2.12,2.04-3.18,3.06c0.66,1.43,1.34,2.86,2.02,4.29c1.46-0.74,2.83-2.99,4.48-2.75c3.13,5.1,6.22,10.26,9.19,15.46
			c5.44-2.58,10.41-6,15.64-8.94c7.3-3.75,12.04-13.13,8.82-21.06c-1.3-4.78-4.44-8.72-7.69-12.34c-2.87-3.25-7.32-3.93-11.29-5.02
			C284.79,128.27,281.45,128.77,278.93,130.8z M688.95,130.79c-1.15,2.49-2.24,5.02-3.03,7.65c4.88,2.12,9.64,4.55,14.33,7.09
			c1.16-2.01,2.26-4.05,3.42-6.06C698.95,136.26,693.73,133.9,688.95,130.79z M741.47,134.97c-2.93,4.55-6.02,9.01-9.16,13.42
			c-1.6,0.07-3.21-1.06-4.8-1.45c-0.56,1.33-1.12,2.65-1.67,3.97c1,0.59,2.02,1.18,3.05,1.77c-3.18,5.16-6.95,9.92-10.51,14.81
			c4.88,3.89,10.09,7.35,15.2,10.92c4.06,3.07,9.31,4.47,14.37,3.93c7.38-1.18,13.05-7.05,15.84-13.74c2.36-3.49,2.28-7.75,2-11.78
			c-1.96-5.38-6-9.64-10.78-12.65C750.26,141.46,746.33,137.51,741.47,134.97z M338.25,149.77c0.72,2.44,1.44,4.88,2.08,7.34
			c2.86-0.97,5.69-2.04,8.51-3.15c-0.74-2.38-1.45-4.77-2.14-7.17C343.84,147.65,341.04,148.7,338.25,149.77z M484.15,150.25
			c-25.4,2.03-50.61,6.54-75.09,13.63c-73.82,20.98-140.59,66.05-187.33,126.94c-39.72,51.43-65.37,113.67-72.89,178.25
			c-4.91,41.39-2.75,83.64,6.6,124.28c9.43,41.19,26.21,80.7,49.37,116.05c40.64,62.54,101.02,112,170.35,139.51
			c66.75,26.88,141.57,32.7,211.79,17.22c51.02-11.19,99.48-33.7,141.01-65.37c40.54-30.82,74.49-70.25,98.99-114.9
			c27.36-49.77,42.94-106.09,44.29-162.9c2.27-74.48-19.09-149.52-60.6-211.45c-45-67.92-113.47-119.95-191.08-144.82
			C576.03,152.56,529.78,147.08,484.15,150.25z M780.79,164.58c-8.22,10.03-15.8,20.63-24.33,30.4c2.53,1.57,4.85,3.47,7.27,5.21
			c8.38-10.21,16.88-20.32,25.25-30.54c-2.5-1.77-4.67-3.94-7.07-5.82C781.63,164.02,781.07,164.39,780.79,164.58z M220.93,171.02
			c-6.08,4.51-11.92,10.97-12.08,18.95c-0.51,5.19,2.7,9.69,5.42,13.79c2.67,4.09,7.53,5.5,11.82,7.18
			c3.54,1.36,7.41,0.09,10.82-1.09c8.99-4.31,15.54-12.56,19.05-21.79c-2.83-4.69-7.07-8.53-10.28-13.03
			c-4.92,4.33-10.05,8.42-14.86,12.87c1.49,1.64,2.92,3.33,4.3,5.07c2.43-2.19,4.85-4.4,7.5-6.32c1.01,1.57,2.46,2.96,3.02,4.8
			c-1.12,2.52-2.83,4.71-4.2,7.09c-1.61,3.15-5.36,4.2-8.58,4.77c-5.17,0.63-9.16-3.49-12.45-6.88c-1.59-1.26-2.08-3.27-2.66-5.11
			c-3.29-8.86,8.06-18.88,16.4-14.27c1.91-2.44,4.07-4.68,6-7.12C234.77,165.39,226.33,167.27,220.93,171.02z M767.89,203.36
			c2.35,2.28,4.93,4.31,7.41,6.46c2.61-1.01,5.18-2.16,7.86-3c1.26,0.07,2.09,1.21,3.06,1.89c3.52,3.23,7.4,6.05,10.8,9.42
			c-0.13,3.31-2.04,6.38-2.88,9.59c2.45,2.15,4.68,4.55,6.46,7.29c4.61-14.06,9.9-27.89,14.46-41.96c-1.71-2.42-4.11-4.26-6.15-6.38
			C795.15,192.03,781.65,198.02,767.89,203.36z M185.74,204.67c6.48,5.98,13.44,11.5,19.53,17.86c-10.65-1.74-21.42-2.63-32.06-4.39
			c-1.93,2.07-3.79,4.21-5.38,6.56c9.51,8.89,18.69,18.15,28.18,27.07c2.33-1.84,4.31-4.07,6.26-6.3
			c-6.24-5.85-12.46-11.72-18.61-17.66c10.42,1.13,20.79,2.79,31.2,4.04c2.47-1.74,4.4-4.13,6.41-6.36
			c-9.82-9.02-19.56-18.14-29.35-27.21C189.81,200.36,187.64,202.39,185.74,204.67z M748.91,205.65c2.14,1.72,4.27,3.47,6.41,5.21
			c1.34-1.96,2.79-3.85,4.21-5.76c-1.89-2.19-4.1-4.07-6.36-5.86C751.72,201.36,750.3,203.5,748.91,205.65z M155.05,232.93
			c-0.72,1.06-1.45,2.11-2.17,3.17c1.8,1.29,3.61,2.56,5.46,3.79c-0.12,1.25-0.24,2.51-0.36,3.77c-6.3,1.07-11.41,5.49-14.54,10.9
			c-5.68,7.28-5.9,19.23,1.71,25.28c4.46,3.12,9.09,7.41,14.91,7.06c15.64,0.64,27.65-18.73,20.44-32.52c-2.21-4-6.17-6.5-9.74-9.16
			c-2.7-2.09-6.2-2.21-9.43-2.74c-0.06-1.68-0.07-3.36-0.13-5.04C158.93,236.25,156.97,234.6,155.05,232.93z M821.65,252.05
			c0.14,9.11,5.86,18.3,14.35,21.88c4.06,2,8.76,1.21,12.98,0.14c-1.43-2.64-2.58-5.42-4.15-7.97c-2.49-0.04-4.93,0.81-7.41,0.54
			c-6.47-2.15-10.07-10.48-6.19-16.38c3.63-4.11,8.38-7.84,13.93-8.72c7.92-1.46,14.33,9.64,9.4,15.79c2.3,2.13,4.6,4.29,7.23,6.04
			c3.55-4.89,3.94-11.64,0.79-16.83c-3.9-5.72-8.58-11.79-15.74-13.33C835.17,231.53,824.02,240.94,821.65,252.05z M138.35,239.21
			c-2.21,2.42-4.33,4.92-6.39,7.48c3.82-0.83,7.72-1.27,11.5-2.24c1.6-1.21,2.87-2.79,4.2-4.27
			C144.54,240.03,141.43,239.77,138.35,239.21z M843.85,288.95c1.62,2.47,3.45,4.79,5.11,7.23c4.87-2.92,9.83-5.67,14.77-8.48
			c2.76,5.01,5.69,9.92,8.46,14.93c-5.06,2.92-9.85,6.27-14.84,9.3c1.78,2.48,3.47,5.03,5.47,7.34c11.04-7.2,22.4-13.92,33.47-21.1
			c-1.43-2.43-2.83-4.86-4.2-7.32c-4.56,2.86-9.07,5.82-13.76,8.46c-3.02-5.4-6.4-10.58-9.45-15.96c4.72-2.55,9.2-5.52,13.77-8.33
			c-1.47-2.35-2.84-4.75-4.07-7.22C866.93,274.7,855.19,281.61,843.85,288.95z M123.51,277.14c2.06,1.6,5.53,2.21,5.77,5.31
			c-1.29-0.56-2.54-1.22-3.72-1.98c-1.37,2.37-2.72,4.73-4.19,7.04c7.94,5.31,16.24,10.1,24.53,14.84c2.42,1.36,1.85,4.38,1.82,6.69
			c0.32,3.21-2.54,5.25-3.89,7.85c-2.35,0.59-4.73,1.83-7.2,1.32c-8.31-4.39-16.47-9.06-24.72-13.56c-1.46,2.4-2.84,4.85-4.14,7.34
			c5.43,3,10.85,6.02,16.28,9.01c2.62,1.37,4.62,3.75,7.51,4.63c4.81,1.89,11.1,2.09,14.93-1.92c3.86-3.88,7.31-8.4,8.7-13.79
			c1.63-4.08,0.73-8.82-1.49-12.49c-3.02-2.83-6.59-5.02-10.33-6.78c-3.92-2.07-7.45-4.8-11.36-6.89c-0.12-1.79,0.14-3.63-0.34-5.35
			c-1.62-1.96-3.96-3.07-6.02-4.47C124.94,275.01,124.22,276.07,123.51,277.14z M909.92,318.04c0.65,1.84,1.05,3.91,2.36,5.46
			c1.61,0.5,3.32,0.6,5.01,0.87c-0.53,1.91-1.45,3.69-1.93,5.61c0.51,1.76,1.36,3.4,2.15,5.07c1.61-2.83,3.33-5.61,5.15-8.31
			c-1.06-2.1-2.13-4.2-3.16-6.31C916.31,319.58,913.12,318.76,909.92,318.04z M864.91,324.47c1.11,2.98,2.66,5.77,4.12,8.6
			c3.55-0.37,7.07-0.91,10.64-1.11c2.16,5.4,4.82,10.57,7.24,15.85c-2.52,2.37-4.94,4.82-7.41,7.24c1.37,2.78,2.78,5.55,4.03,8.39
			c9.03-9.32,17.41-19.26,26.12-28.88c0.99-1.1,2.21-1.95,3.4-2.81c-1.72-2.6-2.31-6.48-4.86-8.17
			C893.76,323.22,879.33,324.23,864.91,324.47z M924.83,323.64c0.57,1.53,1.18,3.06,1.67,4.63c3.37,2.07,7.25,3.09,10.83,4.74
			c-1-2.83-2.09-5.63-3.05-8.48C931.13,324.17,927.98,323.9,924.83,323.64z M102.94,330.8c-4.21,2.77-6,7.66-8.01,12.04
			c-2.37,5.9-5.13,11.67-7.07,17.73c12.52,4.16,24.57,9.52,36.76,14.52c0.93-2.83,1.98-5.62,3.11-8.36
			c-5.05-2.2-10.19-4.19-15.13-6.62c1.55-2.48,2.23-6.27,5.48-7.05c5.12-1.43,10.2-3.02,15.31-4.49c1.13-0.46,2.74-0.53,3.17-1.91
			c1.26-2.77,2.42-5.57,3.75-8.3c-3.45,0.54-6.81,1.59-10.29,1.93c-4.73,0.45-8.87,3-12.75,5.55c0.83-2.97,2.56-6.14,1.12-9.22
			C116.35,330.59,108.45,327.36,102.94,330.8z M917.38,359.54c1.49,4.09,2.85,8.23,4.18,12.37c-10.48,3.65-21.02,7.15-31.59,10.54
			c0.73,2.82,1.4,5.66,2.15,8.48c10.51-3.6,21.08-7.03,31.6-10.59c1.42,4.24,2.76,8.5,4.27,12.72c2.35-0.76,4.73-1.45,7.12-2.12
			c-3.6-11.69-7.51-23.31-11.59-34.84C921.47,357.26,919.41,358.37,917.38,359.54z M83.4,370.95c-3.06,11.25-6.29,22.47-9.44,33.7
			c2.12,0.68,4.25,1.37,6.39,2c0.92-4.25,2.14-8.42,3.02-12.68c10.81,3.2,21.63,6.39,32.48,9.45c1.27-2.59,1.59-5.52,2.22-8.3
			c-10.47-3.11-20.89-6.42-31.42-9.31c1.17-4.68,2.9-9.19,4.06-13.87C88.28,371.57,85.85,371.2,83.4,370.95z M78.07,466.87
			c-6.96-0.23-13.94,0.16-20.89-0.3c5.47,3.46,11.24,6.42,16.87,9.63c-1.79,6.6-3.65,13.19-5.16,19.86
			C73.98,492,79,487.84,84.17,483.9l0.66,0.01c5.29,3.81,10.16,8.2,15.35,12.16c-2.38-6.29-4.76-12.58-7.35-18.79
			c5.33-4.02,11.37-7.19,16.34-11.63c-5.69,0.5-11.41,0.53-17.1,1.01c-0.88-0.09-2.47,0.45-2.65-0.87
			c-2.35-6.67-4.72-13.35-6.95-20.06C80.86,452.74,79.74,459.86,78.07,466.87z M928.88,466.8c-6.85,0-13.7-0.02-20.54-0.08
			c5.25,3.86,10.99,6.98,16.46,10.52c-1.8,7.16-3.61,14.32-5.51,21.47c4.81-4.54,9.95-8.72,14.9-13.09
			c5.33,3.8,10.48,7.85,15.88,11.57c-2.22-6.64-4.41-13.28-6.31-20.02c5.46-3.91,11.29-7.34,16.47-11.62
			c-6.56,1.03-13.2,1.5-19.8,2.24c-1.1-6.68-2.92-13.23-3.89-19.93C933.51,453.97,931.67,460.58,928.88,466.8z M910.07,539.48
			c-0.39,3.09-0.82,6.2-1.11,9.31c5.23,3.99,10.68,7.7,15.87,11.75c-5.12,2.27-10.14,4.74-15.26,6.99
			c-1.08,0.55-2.65,0.88-2.68,2.39c-0.66,3.07-0.78,6.21-1.03,9.34c8.79-3.95,17.3-8.52,26.15-12.3c5.98-0.28,11.93,0.6,17.9,0.95
			c0.44-2.88,0.91-5.76,1.03-8.67c-4.72-0.29-9.38-1.05-14.08-1.47c-1.74-0.26-3.69-0.22-5.05-1.5
			C924.57,550.66,917.35,545.04,910.07,539.48z M61.4,555.16c0.39,2.74,0.67,5.5,0.79,8.28c6.07-0.28,12.05-1.42,18.1-1.92
			c0.64,5.54,1.65,11.07,1.97,16.64c-5.79,1.23-11.86,1.49-17.76,2.23c0.44,3.13,0.69,6.29,0.89,9.46
			c14.08-1.84,28.06-4.39,42.15-6.04c-0.26-2.82-0.56-5.63-0.68-8.44c-5.74,0.24-11.39,1.35-17.09,1.9c-0.7-5.67-1.55-11.33-2-17.03
			c5.58-0.34,11.08-1.37,16.65-1.8c-0.25-2.84-0.53-5.68-0.88-8.51C89.48,551.6,75.45,553.41,61.4,555.16z M904.02,588.01
			c-4.16,5.35-3.8,12.44-3.35,18.82c1.06,6.12,6.42,10.27,11.5,13.16c8.63,3.29,19.57,3.36,26.71-3.25
			c7.5-8.34,7.64-21.15,2.88-30.87c-5.65-1.33-11.38-2.22-17.08-3.28c-0.9,5.97-2.03,11.9-3.13,17.83c2.09,0.74,4.22,1.43,6.39,1.99
			c0.7-3.5,1.39-7,2.12-10.49c1.77,0.51,3.77,0.55,5.38,1.55c2.12,3.75,2.53,8.37,1.45,12.51c-2.49,4.11-6.75,8.21-11.91,7.83
			c-5.14-0.42-11.04-0.93-14.39-5.42c-5.89-5.71-2.43-17.47,5.75-18.73c0.41-2.75,0.71-5.52,1.02-8.27
			C912.27,581.66,906.74,583.32,904.02,588.01z M65.55,594.12c0.83,2.78,1.06,5.8,2.35,8.43c3.33,0.61,6.74,0.53,10.11,0.88
			c1.7,5.6,2.86,11.35,4.46,16.99c-2.82,2.18-5.71,4.27-8.54,6.44c0.8,2.73,1.46,5.5,2.12,8.27c12.45-8.59,24.7-17.47,36.96-26.33
			c-0.44-2.83-0.86-5.66-1.24-8.49C96.27,598.99,80.93,596.36,65.55,594.12z M904.61,623.75c-3.17,1.25-6.27,2.83-8.89,5.01
			c-4.08,3.92-6.29,9.58-6.7,15.17c-0.64,6.8,3.23,13.32,8.49,17.36c3.87,2.91,8.74,3.79,13.43,4.39
			c7.96,0.78,16.6-3.62,19.74-11.16c2.29-5.01,4.01-10.84,1.99-16.23c-1.62-3.47-3.41-7.13-6.67-9.34
			C919.89,624.66,911.99,622.32,904.61,623.75z M77.09,639.39c0.79,2.74,1.45,5.51,2.02,8.31c8.55-2.74,16.98-5.89,25.35-9.13
			c0.17,0.09,0.52,0.26,0.69,0.35c-6.86,8.3-13.86,16.5-20.7,24.82c1.16,2.71,2.22,5.48,3.09,8.32c13.73-4.64,27.52-9.1,41.23-13.8
			c-1.14-2.39-2.19-4.82-3.13-7.29c-9.06,2.77-18.09,5.62-27.16,8.38c6.76-8.83,14.98-16.53,21.61-25.43
			c-0.73-2.81-1.95-5.46-3.02-8.14C103.72,630.26,90.45,634.95,77.09,639.39z M119.32,667.34c-8.03,1.55-16.62,4.75-21.09,12.06
			c-5.07,8.53-1.69,19.97,5.24,26.41c5.05,3.74,11.82,5.49,17.97,3.7c7.92-2.1,16.41-7.04,18.55-15.53
			c1.95-5.98-0.25-12.39-3.33-17.57c-2.48-3.25-5.33-6.79-9.51-7.77C124.61,667.97,121.99,666.29,119.32,667.34z M917.37,672.02
			c-3.09,6.76-6.35,13.44-9.51,20.17c-10.36-5.2-21.05-9.71-31.39-14.92c-1.56,2.78-2.95,5.65-4.39,8.5
			c13.39,5.44,26.68,11.17,40.01,16.79c3.97-9.33,7.4-18.88,11.65-28.09C921.7,673.41,919.55,672.66,917.37,672.02z M872.4,695.56
			c-6.02,2.63-11.88,7.5-13.1,14.28c-0.85,4.23-2.25,8.95-0.19,13.08c2.83,7.47,10.18,12.26,17.66,14.21
			c6.35,2.71,14.17,0.35,18.55-4.84c5.13-5.49,9.26-13.49,6.4-21.06c-1.48-6.36-7.05-10.56-12.57-13.35
			C884.19,694.81,877.96,694.59,872.4,695.56z M109.8,721.4c1.34,2.56,2.79,5.07,4.23,7.58c12.49-6.89,25.25-13.3,37.79-20.1
			c-1.21-2.59-2.8-4.97-4.43-7.3C134.94,708.32,122.47,715.06,109.8,721.4z M131.43,745.55c-2.25,2.23-1.66,5.61-1.47,8.47
			c1.44,4.95,4.29,9.45,7.74,13.26c3.84,4.21,10.79,4.99,15.53,1.84c8.9-5.3,17.26-11.46,26-17c-1.36-2.47-2.73-4.93-4.12-7.37
			c-7.04,4.75-14.02,9.59-21.1,14.28c-3.09,1.94-6.92,4.32-10.59,2.42c-2.82-1.32-4.4-4.56-5.34-7.39
			c-0.07-4.44,3.44-7.82,6.91-10.07c6.83-4.32,13.7-8.59,20.47-13.01c-1.68-2.48-3.39-4.94-5.25-7.28
			C150.54,730.86,139.19,736.1,131.43,745.55z M832.03,752.06c12.04,7.94,23.83,16.25,35.91,24.14
			c5.92-8.75,11.82-17.52,17.87-26.18c-1.75-1.48-3.52-2.92-5.42-4.18c-4.44,6.33-8.89,12.67-13.61,18.79
			c-3.24-1.97-6.31-4.22-9.49-6.27c3.92-5.95,7.87-11.9,11.63-17.97c-1.75-0.97-3.46-2.02-5.12-3.1
			c-4.35,5.58-8.51,11.31-12.73,16.99c-2.47-1.8-4.94-3.58-7.4-5.37c4.05-6.38,8.58-12.47,12.43-18.96c-1.94-1.56-4.1-2.8-6.17-4.15
			C843.94,734.53,838.17,743.42,832.03,752.06z M148.79,783.54c1.72,1.84,3.49,3.63,5.25,5.43c7.25-5.77,14.7-11.29,22.03-16.96
			c-3.21,10.33-7.35,20.39-10.28,30.79c1.58,2.44,3.4,4.72,4.97,7.18c8.92-7.37,17.69-14.93,26.62-22.28
			c2.11-1.69,4.23-3.38,6.02-5.42c-1.81-1.93-3.55-3.92-5.21-5.97c-7.31,5.98-14.66,11.92-22.01,17.85
			c3.75-10.49,7.46-21.01,11.6-31.35c-1.75-2.17-3.54-4.29-5.2-6.5C171.22,765.26,160.17,774.61,148.79,783.54z M823.02,764.81
			c-4.06,4.51-9.48,8.67-10.13,15.17c-0.48,6.57,1.48,14.05,7,18.16c3.04,2.28,5.72,5.41,9.6,6.24c4.61,0.95,9.54,1.71,14.09,0.03
			c4.36-1.54,7.26-5.36,10.08-8.8c3.51-4.59,4.44-10.41,5.96-15.83c-4.45-4.16-9.35-7.81-13.77-11.99
			c-3.84,4.93-7.65,9.9-11.65,14.71c1.73,1.48,3.49,2.91,5.28,4.35c2.07-2.53,4.13-5.08,6.43-7.42c1.38,1.14,3,2.07,4.14,3.5
			c-0.22,5.24-2.22,11.32-7.35,13.67c-8.28,2.62-17.65-2.4-20.92-10.27c-2.4-3.82-0.52-8.48,1.75-11.87
			c2.61-3.81,7.7-4.67,11.95-3.76c1.37-2.32,2.58-4.72,3.95-7.04C834.36,760.94,827.34,760.42,823.02,764.81z M176.06,815.24
			c1.75,1.99,3.44,4.03,5.09,6.12c10.7-9.06,20.53-19.16,31-28.49l0.27,0.8c-6.4,13.39-12.11,27.1-18.49,40.51
			c2.73,1.84,4.88,4.93,7.91,6.05c13-6.46,26.01-12.92,38.95-19.5c-0.23,0.44-0.69,1.34-0.92,1.79
			c-8.39,10.12-16.43,20.52-24.85,30.61c8.54,6.97,16.88,14.2,25.51,21.05c1.59-2.15,3.26-4.24,5.03-6.25
			c-6.28-5.01-12.73-9.82-19.01-14.84c2.58-3.06,4.98-6.27,7.4-9.45c5.76,4.42,11.16,9.3,17.01,13.62c1.36-1.76,2.76-3.48,4.19-5.17
			c-5.71-4.56-11.47-9.06-16.99-13.83c2.23-2.3,4.32-4.73,6.24-7.29c6.06,4.89,12.11,9.8,18.01,14.87c1.39-2.08,2.79-4.16,4.2-6.24
			c-10.36-8.68-22.41-15.39-31.53-25.48c-9.74,5.43-19.66,10.54-29.44,15.88c4.43-10.13,8.88-20.25,13.59-30.25
			c-3.51-4.87-7.84-9.09-11.43-13.9C197.04,795.46,186.77,805.59,176.06,815.24z M782.73,808.75c-4.4,4.47-9.12,8.6-13.84,12.73
			c9.88,10.56,19.36,21.52,29.67,31.67c4.18-4.42,8.29-8.99,13.12-12.73c3.17-3.31,5.83-7.61,5.53-12.36
			c-1.17-10.71-9.73-19.15-19.25-23.26C792.7,802.26,786.74,805.21,782.73,808.75z M758.54,828.91
			c5.67,7.89,11.98,15.32,17.67,23.21c-10.45-3.94-20.98-7.65-31.43-11.59c-2.14,1.4-4.26,2.83-6.38,4.26
			c8.89,11.48,17.44,23.23,26.44,34.62c1.94-1.8,3.99-3.48,6.19-4.96c-5.43-7.63-11.31-14.93-16.95-22.4
			c10.25,3.84,20.45,7.81,30.73,11.6c2.02-1.8,4.11-3.51,6.27-5.15c-8.4-11.25-16.91-22.42-25.26-33.7
			C763.34,826.08,760.91,827.45,758.54,828.91z M267.73,845.74c-6.86,10.49-13.95,20.85-20.81,31.34c1.79,2.36,4.83,3.6,7.13,5.51
			c3.06-4.91,6.36-9.67,9.28-14.66c2.48,1.62,4.76,3.63,6.35,6.17c0.52,6.3,0.12,12.67,0.18,19c2.92,1.85,5.62,4.01,8.47,5.95
			c-0.29-6.05-0.06-12.11-0.14-18.16c0.09-2.07-1.16-3.82-2.01-5.6c4.2,2.24,9.52,2.18,13.5-0.49c3.44-2.5,4.68-6.78,5.3-10.79
			c-0.45-5.42-5.18-8.89-9.5-11.41c-5.28-3.07-10.37-6.46-15.52-9.75C268.95,843.55,268.45,844.76,267.73,845.74z M716.37,859.91
			c2.7,14.93,5.63,29.83,8.26,44.78c2.43-1.35,4.84-2.72,7.33-3.98c0.38-3.68-1.01-7.13-2.09-10.57c5.05-2.93,9.87-6.26,14.61-9.67
			c2.97,1.97,5.79,4.16,8.55,6.43c2.41-1.75,4.83-3.48,7.24-5.25c-11.89-9.35-24.31-18.03-36.36-27.18
			C721.24,855.69,718.24,857.66,716.37,859.91z M299.39,869.28c-4.27,2.94-4.83,8.99-3.11,13.52c2.35,4.64,6.08,8.42,10.24,11.49
			c1.67,1.36,4.18,3.17,3.17,5.67c-0.57,3.08-4.02,4.31-6.8,4.12c-3.52-0.93-6.81-3.11-8.68-6.28c-0.68-2.25,0.28-4.55,0.75-6.74
			c-2.78-1.12-5.57-2.2-8.43-3.09c-0.75,3.76-1.89,7.82,0.01,11.46c2.25,7.63,10.37,10.94,17.45,12.5c4.21,1.01,7.8-1.57,11.09-3.77
			c2.39-1.6,2.97-4.67,3.63-7.26c-0.63-4.8-1.96-10.38-6.33-13.14c-3.41-2.68-7.02-5.68-8.63-9.82c0.46-1.41,1.07-2.88,2.31-3.76
			c3.45-0.4,6.56,1.64,9.17,3.64c1.51,1.9,2.42,4.61,0.93,6.82c2.78,1.49,5.6,2.9,8.37,4.42c2.19-4.91,1.1-11.09-2.72-14.88
			c-2.35-2.34-5.21-4.09-8.1-5.67C309.19,866.77,303.27,865.61,299.39,869.28z M674.1,880.19c-5.24,2.81-10.94,6.46-12.13,12.77
			c-3.28,7.49,0.42,15.49,4.21,22.01c3.01,5.32,9.1,7.69,14.82,8.72c5.17-0.69,10.92-1.12,14.95-4.84c4.08-2.79,7.61-6.43,9.79-10.9
			c-2.1-5.26-4.26-10.51-6.27-15.81c-5.97,2.29-11.75,5.05-17.79,7.19c0.82,2.61,1.91,5.13,3.09,7.62c3.05-1.57,6.21-2.93,9.33-4.36
			c0.76,1.43,1.6,2.84,2.13,4.4c-2.54,5.06-7.54,8.81-13.29,9.06c-2.92,0.15-5.27-1.89-7.23-3.78c-3.98-3.98-6.89-9.54-6.65-15.23
			c1.48-3.23,2.79-7.13,6.28-8.73c3.94-2.05,9.88-2.54,12.65,1.63c2.47-1.8,5.06-3.46,7.26-5.62c-1.71-1.57-3.36-3.25-5.41-4.34
			C684.98,877.28,679.09,878.6,674.1,880.19z M334,879.52c-5.91,13-11.89,25.97-17.84,38.95c2.85,1.34,5.64,2.85,8.58,4.01
			c5.59-13.12,12.28-25.79,17.4-39.11C339.39,882.17,336.72,880.79,334,879.52z M343.39,883.85c-0.85,2.45-1.85,4.84-2.86,7.23
			c3.8,1.46,7.65,2.8,11.5,4.17c-4.3,11.19-8.37,22.48-12.7,33.66c2.78,1.13,5.6,2.19,8.44,3.16c4.15-11.25,8.4-22.47,12.6-33.7
			c3.79,1.79,7.64,3.47,11.44,5.27c0.6-1.09,1.21-2.18,1.84-3.23c1.85,7.97,4.92,15.63,6.57,23.64c-1.61,5.87-3.34,11.73-5.17,17.55
			c2.84,0.66,5.66,1.39,8.49,2.15c1.54-5.59,2.56-11.33,4.33-16.85c7.03-6.76,14.41-13.26,21.77-19.7c-2.93-1.35-6.31-2.06-9.5-2.07
			c-3.74,2.97-7.02,6.5-10.53,9.74c-0.98,0.75-1.75,2.2-3.18,2.02c-1.53-6.17-3.33-12.26-4.94-18.4
			C368.55,894.26,356.23,888.33,343.39,883.85z M643.82,894.11c2.63,9.23,6.24,18.15,9.2,27.27c-8.96-6.92-17.29-14.65-26.14-21.71
			c-2.65,0.63-5.06,1.99-7.54,3.08c4.75,13.18,9.16,26.5,13.68,39.77c2.43-0.57,4.86-1.21,7.29-1.82
			c-2.69-9.01-6.53-17.63-9.25-26.63c8.58,7.09,17.29,14.04,26.04,20.92c2.69-0.43,5.07-1.98,7.62-2.88
			c-4.71-13.64-9.17-27.36-13.75-41.04C648.58,892.07,646.2,893.09,643.82,894.11z M606.83,905.84
			c3.42,13.71,7.02,27.37,10.49,41.06c2.83-0.7,5.65-1.44,8.42-2.34c-3.63-13.54-7.09-27.12-10.47-40.73
			C612.42,904.32,609.61,905.04,606.83,905.84z M594.07,909.04c2.02,9.01,3.37,18.17,5.44,27.18c-8.13-7.75-15.43-16.35-23.54-24.07
			c-2.38,0.21-4.72,0.74-7.08,1.08c2.81,14.01,5.62,28.01,8.35,42.03c2.43-0.31,4.88-0.6,7.32-0.89c-1.53-9.19-3.46-18.3-5.2-27.44
			c7.52,7.88,14.73,16.07,22.06,24.13c2.85-0.67,5.67-1.4,8.51-2.08c-2.8-14.03-5.73-28.04-8.34-42.11
			C599.07,907.55,596.56,908.27,594.07,909.04z M431.39,912.51c-5.71,2.68-10.95,7.1-12.42,13.51c-1.37,7.08-1.86,14.85,1.29,21.55
			c7.06,10.03,23.65,12.25,32.3,3.15c6.8-6.75,8.98-17.67,5.58-26.58C453.91,914.07,441.38,910.21,431.39,912.51z M555.12,915.25
			c2.11,13.97,4.46,27.93,6.15,41.97c2.87-0.17,5.74-0.43,8.6-0.77c-1.95-14.12-4.34-28.17-6.22-42.29
			C560.82,914.62,557.97,915,555.12,915.25z M464.51,916.33c-0.77,14.08-2.11,28.11-3.02,42.18c3.17,0.3,6.33,0.58,9.5,0.95
			c-0.02-5.97,0.87-11.89,1.02-17.85c5.99,0.31,11.99,0.61,17.99,1.01c-0.04-2.5-0.07-4.99-0.11-7.48
			c-5.95-0.03-11.87-0.69-17.81-0.75c-0.01-3.56,0.71-7.07,0.99-10.6c6.95,0.55,13.91,1.18,20.82,2.12c0.07-2.51,0.12-5.01,0.19-7.5
			C484.22,917.75,474.36,917.07,464.51,916.33z M538.36,916.25c-1.98,9.59-4.06,19.17-5.87,28.79c-0.24,0.29-0.71,0.87-0.95,1.16
			c-2.48-9.72-6.28-19.04-8.81-28.73c-4.23,0.25-8.45,0.71-12.69,0.77c0.68,14.43,2.08,28.84,3.01,43.26
			c2.35-0.31,4.72-0.57,7.11-0.74c-0.06-11-1.25-21.96-1.84-32.94c0.46,0.71,0.85,1.46,1.18,2.26c2.85,10.22,6.33,20.26,9.29,30.45
			c2.84-0.39,5.69-0.66,8.54-1.01c2.12-10.93,3.64-22.04,6.36-32.82c0.66,10.92,1.29,21.84,2,32.77c2.77-0.36,5.55-0.65,8.33-1.01
			c-0.93-14.07-1.92-28.15-3.23-42.19C546.65,916.33,542.5,916.31,538.36,916.25z"/>
	</g>
	<path fill="#183883" d="M465.47,76.29c5.81-0.9,11.3,4.14,12.49,9.65c0.5,4.96,0.99,10.55-2.2,14.77
		c-3.54,2.72-8.24,4.62-12.73,3.46c-9.37-2.68-13.23-15.58-6.85-22.97C458.23,78,462.18,77.5,465.47,76.29z"/>
	<path fill="#183883" d="M638.43,97.43c3.56-0.35,7.8-1.34,10.78,1.24c2.87,1.92,5.63,4.63,5.71,8.31
		c0.38,6.62-2.54,14.3-9.04,16.98c-6.33,2.11-13.37-1.74-16.26-7.47c-1.75-6.47,0.94-13.6,5.96-17.88
		C636.43,98,637.38,97.61,638.43,97.43z"/>
	<path fill="#183883" d="M325.63,117.21c4.16,3.18,8.1,6.67,11.62,10.57c-3.38,2-6.87,3.81-10.51,5.29
		C326.12,127.8,326.09,122.49,325.63,117.21z"/>
	<path fill="#183883" d="M272.88,142.34c5.34-2.63,10.42-7.84,16.84-6.12c1.69,0.85,3.47,1.85,4.39,3.59
		c1.73,2.99,4.34,5.61,4.99,9.11c0.22,3.17,0.89,7-1.86,9.33c-3.55,2.58-7.61,4.37-11.34,6.66c-1.86-3.23-3.77-6.44-5.48-9.75
		c2.44-1.57,5.22-2.54,7.52-4.35c-0.5-1.11-0.97-2.24-1.53-3.32c-0.97-1.3-2.41,0.06-3.46,0.46c-1.93,0.98-3.84,1.99-5.79,2.94
		C275.77,148.02,274.32,145.18,272.88,142.34z"/>
	<path fill="#183883" d="M739.38,154.02c1.88-2.79,3.74-5.6,5.48-8.49c4.22,2.87,8.64,5.73,11.73,9.87
		c1.94,4.33,0.15,9.11-2.56,12.67c-1.42,3.24-4.64,4.81-7.23,6.93c-6.71,1.25-11.64-4.23-16.93-7.33c2.2-3.16,4.26-6.42,6.53-9.53
		c2.22,1.69,4.36,3.56,6.88,4.84c1.61-0.41,2.33-2.4,3.54-3.48C744.35,157.64,741.86,155.84,739.38,154.02z"/>
	<g>
		<path fill="#183883" d="M388.52,184.51c49.15-17.9,102.34-24.87,154.43-19.65c45.78,4.48,90.6,18.33,131.05,40.23
			c66.24,35.74,120.58,93.25,151.91,161.74c31.29,67.59,39.74,145.38,24.07,218.17c-10.77,50.29-32.85,98.12-64.13,138.95
			c-29.43,38.58-66.94,71-109.49,94.36c-57.39,31.62-123.93,46.13-189.28,41.8c-73.52-4.46-145.23-33.31-201.62-80.64
			c-10.78-8.79-20.67-18.58-30.42-28.47c-28.1-30.02-51.15-64.82-67.22-102.7c-17.44-40.8-26.9-84.98-27.84-129.33
			c-0.94-46.43,7.41-93.08,24.85-136.15c14.06-35.03,34.02-67.63,58.49-96.35C281.67,240.54,332.25,204.92,388.52,184.51z
			 M496.22,174.4c-64.75,2.17-128.64,23.91-181.44,61.42c-50.35,35.68-90.57,85.47-114.66,142.3
			c-19.34,45.21-28.55,94.71-26.91,143.86c1.67,70.99,26.91,141.18,70.74,197.05c42.79,55.51,103.62,96.72,170.86,116.37
			c43.08,12.65,88.66,16.24,133.26,11.4c31.24-3.67,61.97-11.65,91.01-23.75c53.88-22.52,101.7-59.35,137.32-105.6
			c36.62-46.78,60.04-103.63,67.69-162.5c1.19-12.29,2.84-24.6,2.58-36.98c-0.06-10.32,0.4-20.68-0.87-30.96
			c-2.42-37.59-11.78-74.63-26.56-109.23c-26.34-61.09-71.15-114.06-127.12-150.02C634.45,190.26,564.96,171.24,496.22,174.4z"/>
	</g>
	<path fill="#183883" d="M790.94,203.59c5.13-2.14,10.06-4.65,14.84-7.5c-1.97,5.28-4.33,10.42-6.13,15.77
		C797.47,208.42,794.02,206.15,790.94,203.59z"/>
	<path fill="#183883" d="M152.85,253.84c2.07-1.51,4.67-1.91,7.06-2.69c6.57,1.66,13.44,5.7,15.11,12.75
		c-0.06,3.9-1.84,7.67-4.31,10.62c-3.9,4.78-11.76,4.91-16.28,0.96c-3.04-2.41-6.87-4.99-6.92-9.32
		C146.14,261.29,149.35,256.84,152.85,253.84z"/>
	<path fill="#183883" d="M886.77,331.97c5.27,0.18,10.52-0.17,15.7-1.19c-3.05,4.12-7.77,6.84-10.02,11.56
		C889.85,339.32,888.81,335.35,886.77,331.97z"/>
	<path fill="#183883" d="M102.31,342.04c0.97-3.06,5.55-4.71,7.81-2.06c1.23,1.66,2.58,3.88,1.42,5.95
		c-1.74,4.05-3.85,7.96-4.79,12.31c-3.21-1.42-6.43-2.84-9.66-4.2C99.2,350.2,101.04,346.23,102.31,342.04z"/>
	<path fill="#183883" d="M603.3,444.64c0.35,0.36,1.04,1.06,1.39,1.42c-0.36,1.79-0.81,3.58-1.27,5.36
		c-0.14-0.83-0.4-2.49-0.53-3.33C602.99,447.23,603.19,445.51,603.3,444.64z"/>
	<path fill="#183883" d="M85.58,604.67c5.53,0.55,11.01,1.47,16.56,1.96c-1.53,1.69-3.69,2.56-5.58,3.78
		c-2.87,1.65-5.24,4.01-8.03,5.79C87.71,612.31,86.54,608.52,85.58,604.67z"/>
	<path fill="#183883" d="M904.42,632.56c6.14-1.81,12.42,1.18,17.48,4.5c6.31,5.37,3.46,17.07-4.25,19.56
		c-2.52,0.95-5.15-0.17-7.71-0.3c-6.03,0.15-11.21-4.79-13.03-10.26C896.25,640.75,898.6,633.84,904.42,632.56z"/>
	<path fill="#183883" d="M358.16,640.14c4.69-1.92,9.25-4.17,14.04-5.85c2.08,3.33,4.75,6.23,7.14,9.34
		c-4.21-0.37-4.44-6.27-8.32-7.33c-10.54,3.22-20.22,8.65-30.38,12.86c0.7,1.31,1.13,2.92,2.57,3.66c3.61,2.4,7.43,4.52,11.52,6.01
		c14.41,6.38,29.12,12.17,44.29,16.46c8.67,1.82,16.98,5.27,25.82,6.25c-2.95-3.54-7.53-4.75-11.25-7.2
		c-11.98-8.05-23.18-17.26-33.1-27.76c-0.02-0.46-0.07-1.38-0.09-1.84c9.94,10.74,21.22,20.23,33.45,28.27
		c7.3,4.34,14.79,8.36,22.1,12.69c-1.64-0.16-3.61-1.81-4.98-0.38c-0.14-1.61-1.84-1.37-2.94-1.73c-26.89-5.4-52.98-14.24-78-25.41
		c-4.09-2.55-8.25-5-12.73-6.81c-0.02-0.26-0.08-0.79-0.11-1.06C343.76,646.11,351.08,643.32,358.16,640.14z"/>
	<path fill="#183883" d="M116.47,676.7c3.29-0.76,7.14-1.17,10.24,0.48c7.55,3.19,8.04,15.34,1.27,19.61
		c-5.08,3.44-11.62,6.37-17.74,4.08c-5.69-2.66-8.07-9.74-5.54-15.38C107.28,681.13,111.91,678.54,116.47,676.7z"/>
	<path fill="#183883" d="M874.51,703.73c7.89-1.24,15.75,3.45,19.49,10.3c2.36,4.35-0.03,9.55-3.05,12.9
		c-4.42,3.53-10.57,2.98-15.39,0.55c-7.17-2.58-11.52-11.37-8.65-18.53C868.85,706.6,871.44,704.34,874.51,703.73z"/>
	<path fill="#183883" d="M780.44,820.36c3.97-2.93,7.01-7.82,12.32-8.3c5.35,1.67,10.47,4.81,13.21,9.86
		c2.28,3.05,4.5,7.5,2.04,11.08c-1.77,3.74-5.43,5.9-8.36,8.62C792.56,835.19,786.7,827.56,780.44,820.36z"/>
	<path fill="#183883" d="M273.07,853.14c4.43,3.3,10.77,5.08,12.67,10.85c-0.14,2.72-2.19,4.99-4.75,5.74
		c-5.28-1.14-9.69-4.44-14.32-7.04C268.68,859.43,270.84,856.26,273.07,853.14z"/>
	<path fill="#183883" d="M724.64,865.73c4.77,3.32,9.6,6.66,13.7,10.81c-3.11,1.52-5.89,4.76-9.44,4.69
		C727.28,876.12,726.08,870.89,724.64,865.73z"/>
	<path fill="#183883" d="M428.9,924.93c4.05-7.17,16.13-7.26,20.04,0.1c2.65,6.44,1.05,13.86-2.08,19.86
		c-3.31,1.96-6.54,5.18-10.77,4.05c-3.4-1.1-7.55-2.63-8.71-6.39C425.23,936.8,426.54,930.39,428.9,924.93z"/>
</g>
<g>
	<g>
		<path fill="#0093DD" d="M496.22,174.4c68.74-3.16,138.23,15.86,195.9,53.36c55.97,35.96,100.78,88.93,127.12,150.02
			c14.78,34.6,24.14,71.64,26.56,109.23c1.27,10.28,0.81,20.64,0.87,30.96c0.26,12.38-1.39,24.69-2.58,36.98
			c-7.65,58.87-31.07,115.72-67.69,162.5c-35.62,46.25-83.44,83.08-137.32,105.6c-29.04,12.1-59.77,20.08-91.01,23.75
			c-44.6,4.84-90.18,1.25-133.26-11.4c-67.24-19.65-128.07-60.86-170.86-116.37c-43.83-55.87-69.07-126.06-70.74-197.05
			c-1.64-49.15,7.57-98.65,26.91-143.86c24.09-56.83,64.31-106.62,114.66-142.3C367.58,198.31,431.47,176.57,496.22,174.4z
			 M424.04,329.75c-43.14,8.97-84.93,25.77-120.94,51.36c-20.85,14.81-39.62,32.85-53.86,54.16c-13.5,20.12-22.44,43.53-24.26,67.77
			c-1.64,20.39,1.84,41.16,9.72,60.01c7.23,17.85,18.2,33.99,30.91,48.38c22.88,25.02,51.43,44.47,82.18,58.55
			c21.06,10.16,43.36,17.54,66.05,23.1c39.82,10.83,81.43,12.34,122.47,11.36c42.18-3.08,84.49-10.81,123.61-27.33
			c9.44-3.9,18.9-7.8,28.17-12.12c23.42-12.48,45.51-27.85,64.04-46.94C774.9,594.93,792.28,565.44,797,533
			c1.16-5.35,0.23-11.01,2.32-16.16c0.34-3.72,0.14-7.46,0.06-11.17c-75.8,0.06-151.6,0.01-227.39,0.03
			c-16.53-0.18-33.09,0.33-49.6-0.26c0.29-61.69-0.03-123.39,0.16-185.08C489.5,319.97,456.37,322.71,424.04,329.75z M714.81,402.97
			c-4.49,5.58-7.91,12.12-9.38,19.16c-3.29,14.57-2.27,30.47,4.61,43.89c4.16,7.07,11.5,12.74,19.89,13.26
			c8.55,0.54,17.99-3.54,21.6-11.7c1.96-4.75,4.05-9.67,4.25-14.87c-3.77-1.45-7.28-3.52-11.15-4.7c-0.88,4.74-2.35,9.53-5.24,13.44
			c-3.82,4.71-11.6,5.8-15.87,1.09c-7.48-7.43-7.27-18.7-7.22-28.48c0.14-7.83,0.92-17,7.35-22.4c3.2-3.11,8.18-3.53,12.23-2.03
			c4.36,3.04,7.41,7.8,8.88,12.88c3.67-1.04,7.27-2.38,11.06-2.98c-0.22-9.16-5.56-18.48-14.08-22.29
			C732.8,393.09,721.17,395.3,714.81,402.97z M574.26,397.24c-0.22,27-0.05,54.02-0.08,81.02c3.73-0.31,8.06,0.84,11.43-0.51
			c0.16-20.45,0.24-40.92-0.03-61.37c0.18,0,0.54,0,0.72,0c2.5,15.76,5.63,31.42,8.32,47.15c1.09,4.95,1.36,10.08,3.02,14.9
			c4.01-0.49,8.24,0.42,12.13-0.5c3.61-17.26,6.27-34.73,9.62-52.05c0.68-3.36,0.68-6.9,2.13-10.05
			c-0.01,20.8-0.09,41.61,0.04,62.42c3.65,0.03,7.3,0,10.95,0.23c1.06-4.39-0.01-8.98,0.55-13.45c-0.41-22.59,0.35-45.18-0.27-67.76
			c-6.33,0.03-12.66-0.11-18.98,0.14c-2.48,16.3-6.02,32.44-9.12,48.65c-0.35-0.36-1.04-1.06-1.39-1.42
			c-0.11,0.87-0.31,2.59-0.41,3.45c-2.88-14.35-5.56-28.75-8.36-43.12c-0.55-2.51-0.64-5.19-1.78-7.52
			C586.6,397.01,580.42,397.45,574.26,397.24z M644.6,397.51c0.16,11.46-0.03,22.92,0.1,34.38c-2.13,0.15-4.26,0.26-6.38,0.36
			c0.07,3.43,0.07,6.85,0.08,10.28c2.01-0.03,4.03-0.07,6.06-0.12c0.5,11.96-0.01,23.94,0.27,35.9c7.41-0.11,14.83,0.15,22.23-0.11
			c4.55-1.26,9.74-0.55,13.76-3.37c3.02-1.95,5.85-4.34,7.72-7.46c3.46-5.54,6.34-11.77,6.47-18.42c0.44-8.15,0.67-16.39-0.5-24.5
			c-1.4-6.36-3.26-12.7-6.43-18.42c-3.21-5.55-9.56-9.04-15.97-8.74C662.88,397.42,653.72,397,644.6,397.51z"/>
	</g>
	<path fill="#0093DD" d="M393.15,385.69c30.77-30.84,73.07-50.44,116.71-52.56c0.02,22.37-0.08,44.75,0.02,67.13
		c-12-0.05-23.99-1.02-35.93-2.12C446.8,395.57,419.8,391.42,393.15,385.69z"/>
	<path fill="#0093DD" d="M404.04,347.39c10.39-3.2,20.99-5.62,31.79-6.96c-7.58,3.7-15.05,7.62-22.29,11.94
		c-11.58,7.88-22.08,17.27-31.65,27.49c-1.28,1.43-2.8,3.27-4.94,2.19c-11.4-2.88-22.83-6.04-33.63-10.72
		c0-0.18-0.01-0.56-0.01-0.75C363.01,361.55,383.13,353.23,404.04,347.39z"/>
	<path fill="#0093DD" d="M326.64,380.59c0.88-0.4,1.78-1.49,2.83-0.91c13,5.8,27.24,8.19,40.33,13.7
		c-6.62,8.14-11.94,17.23-17.46,26.13c-4.28,6.77-7.23,14.25-10.28,21.63c-6.12,16.02-10.36,32.79-12.19,49.86
		c-0.76,4.87-0.42,9.82-1.12,14.69c-30.18-0.1-60.37,0.23-90.55-0.16c1.05-23.92,10.01-47.06,23.69-66.55
		C278.62,414.85,301.66,395.7,326.64,380.59z"/>
	<path fill="#0093DD" d="M346.98,465.99c6.76-25.63,19.69-49.49,36.61-69.83c24.19,5.36,48.58,9.9,73.25,12.35
		c17.62,2.15,35.35,3.09,53.01,4.61c-0.02,30.86,0.01,61.72-0.01,92.58c-56.16-0.04-112.32,0.06-168.49-0.05
		C342.5,492.34,343.62,478.96,346.98,465.99z"/>
	<path fill="#0093DD" d="M657.44,410.83c4.87,0.06,9.75-0.15,14.62,0.04c4.16,0.51,6.85,4.26,8.11,7.98
		c3.15,6.94,2.23,14.72,2.39,22.12c0.12,5.91-0.63,11.94-3.17,17.34c-0.92,2.29-2.95,3.97-5.13,4.99
		c-5.56,1.26-11.25,1.45-16.93,1.28c0.01-7.39-0.18-14.78,0.12-22.16c4.1,0.1,8.2,0.04,12.3,0.16c0.13-3.49,0.11-6.97,0.1-10.45
		c-4.13,0-8.26-0.02-12.39-0.02C657.19,425.02,657.22,417.92,657.44,410.83z"/>
	<path fill="#0093DD" d="M238.3,518.35c30.16-0.05,60.33-0.03,90.49-0.03c0.67,17.98,3.54,35.89,8.89,53.09
		c4.87,14.77,10.67,29.46,19.73,42.22c2.15,3.53,4.85,6.67,7.03,10.18c-13.24,5.49-26.68,10.91-38.57,19.04
		c-1.27,1.26-2.68-0.19-3.85-0.79c-27.08-17.1-51.7-39.33-67.47-67.52C245.06,557.35,238.83,538.07,238.3,518.35z"/>
	<path fill="#0093DD" d="M341.37,518.34c56.14-0.05,112.29-0.01,168.44-0.02c0.12,27.01-0.06,54.03,0.09,81.04
		c-37.24,1.33-74.65,4.77-110.79,14.23c-7.16,1.74-14.31,3.5-21.37,5.59c-1.5,0.72-2.39-0.83-3.1-1.85
		c-10.3-14.92-18.98-31.08-24.72-48.31C344.31,552.74,341.56,535.54,341.37,518.34z"/>
	<path fill="#0093DD" d="M522.4,518.55c16.52-0.51,33.07-0.1,49.61-0.23c31.98,0.01,63.97,0.01,95.96,0
		c9.83,0.16,19.7-0.36,29.51,0.29c-1.46,19.56-4.23,39.24-11.13,57.7c-6.02,14.81-13.18,29.41-23.53,41.72
		c-0.46-0.02-1.38-0.05-1.83-0.07c-44.89-13.2-91.84-18.32-138.52-18.58C522.46,572.44,522.62,545.49,522.4,518.55z"/>
	<path fill="#0093DD" d="M709.95,518.36c25.58-0.1,51.16,0,76.74-0.06c-1.77,34.07-18.87,65.91-42.28,90.14
		c-10.43,10.74-21.83,20.67-34.48,28.71c-11.61-4.69-22.51-11.45-34.77-14.42C697.08,592.54,708.63,555.49,709.95,518.36z"/>
	<path fill="#0093DD" d="M416.96,621.97c30.58-6.16,61.75-9.09,92.91-9.87c-0.08,26.6,0.04,53.2-0.06,79.8
		c-21.45-0.95-42.71-5.98-62.43-14.46c-15.96-7.01-31.17-16.08-43.91-28.05c-6.95-5.8-13.15-12.44-18.83-19.48
		C395.15,626.27,406.09,624.17,416.96,621.97z"/>
	<path fill="#0093DD" d="M522.43,612.18c44.57-0.28,89.36,4.98,132.47,16.59c-5.58,7.67-12.83,14.02-19.83,20.37
		c-24.96,22.42-56.88,36.52-89.97,41.39c-7.49,1.03-15.11,2.27-22.67,1.31C522.54,665.29,522.57,638.73,522.43,612.18z"/>
	<path fill="#0093DD" d="M666.12,635.17c0.7-0.69,1.23-2.28,2.5-1.77c10.17,2.83,19.61,7.67,29.07,12.22
		c-11.83,5.83-23.29,12.37-35.37,17.7c-10.93,4.79-22.11,9.01-33.51,12.53c-4.9,1.35-9.83,2.94-14.95,3.05
		c11.49-6.03,21.74-14.05,31.67-22.34C652.98,650.03,660.04,643.01,666.12,635.17z"/>
	<path fill="#0093DD" d="M340.64,649.16c10.16-4.21,19.84-9.64,30.38-12.86c3.88,1.06,4.11,6.96,8.32,7.33
		c0.73,0.02,1.08,0.39,1.06,1.11c0.02,0.46,0.07,1.38,0.09,1.84c9.92,10.5,21.12,19.71,33.1,27.76c3.72,2.45,8.3,3.66,11.25,7.2
		c-8.84-0.98-17.15-4.43-25.82-6.25c-15.17-4.29-29.88-10.08-44.29-16.46c-4.09-1.49-7.91-3.61-11.52-6.01
		C341.77,652.08,341.34,650.47,340.64,649.16z"/>
</g>
</svg>
